<svg width="29" height="29" viewBox="0 0 29 29" fill="none" xmlns="http://www.w3.org/2000/svg">
<path d="M12.377 19.7131L7.25 14.585L8.95858 12.8764L12.377 16.2935L19.2113 9.45801L20.9211 11.1678L12.377 19.7131Z" fill="#05E9F0"/>
<path fill-rule="evenodd" clip-rule="evenodd" d="M1.20837 14.5002C1.20837 7.15954 7.15942 1.2085 14.5 1.2085C21.8407 1.2085 27.7917 7.15954 27.7917 14.5002C27.7917 21.8408 21.8407 27.7918 14.5 27.7918C7.15942 27.7918 1.20837 21.8408 1.20837 14.5002ZM14.5 25.3752C13.0719 25.3752 11.6578 25.0939 10.3384 24.5474C9.01894 24.0008 7.82009 23.1998 6.81025 22.1899C5.80042 21.1801 4.99937 19.9813 4.45285 18.6618C3.90633 17.3424 3.62504 15.9283 3.62504 14.5002C3.62504 13.072 3.90633 11.6579 4.45285 10.3385C4.99937 9.01906 5.80042 7.82021 6.81025 6.81038C7.82009 5.80054 9.01894 4.99949 10.3384 4.45297C11.6578 3.90645 13.0719 3.62516 14.5 3.62516C17.3843 3.62516 20.1504 4.77092 22.1898 6.81038C24.2293 8.84983 25.375 11.6159 25.375 14.5002C25.375 17.3844 24.2293 20.1505 22.1898 22.1899C20.1504 24.2294 17.3843 25.3752 14.5 25.3752Z" fill="#05E9F0"/>
</svg>
