<svg width="32" height="32" viewBox="0 0 32 32" fill="none" xmlns="http://www.w3.org/2000/svg">
<path d="M18.8706 28.125H13.2537C13.0051 28.125 12.7666 28.0262 12.5908 27.8504C12.415 27.6746 12.3162 27.4361 12.3162 27.1875V16.4375C12.3162 16.1889 12.415 15.9504 12.5908 15.7746C12.7666 15.5988 13.0051 15.5 13.2537 15.5H18.8706C19.1192 15.5 19.3577 15.5988 19.5335 15.7746C19.7093 15.9504 19.8081 16.1889 19.8081 16.4375V27.1875C19.8081 27.4361 19.7093 27.6746 19.5335 27.8504C19.3577 28.0262 19.1192 28.125 18.8706 28.125ZM14.1912 26.25H17.9331V17.375H14.1912V26.25Z" fill="#15D79C"/>
<path d="M10.0538 28.125H4.4375C4.18886 28.125 3.9504 28.0262 3.77459 27.8504C3.59877 27.6746 3.5 27.4361 3.5 27.1875V9.88184C3.5 9.6332 3.59877 9.39474 3.77459 9.21892C3.9504 9.04311 4.18886 8.94434 4.4375 8.94434H10.0538C10.3024 8.94434 10.5408 9.04311 10.7167 9.21892C10.8925 9.39474 10.9913 9.6332 10.9913 9.88184V27.1875C10.9913 27.4361 10.8925 27.6746 10.7167 27.8504C10.5408 28.0262 10.3024 28.125 10.0538 28.125ZM5.375 26.25H9.11625V10.8193H5.375V26.25Z" fill="#15D79C"/>
<path d="M27.6876 28.125H22.0707C21.822 28.125 21.5836 28.0262 21.4078 27.8504C21.232 27.6746 21.1332 27.4361 21.1332 27.1875V3.9375C21.1332 3.68886 21.232 3.4504 21.4078 3.27459C21.5836 3.09877 21.822 3 22.0707 3H27.6876C27.9362 3 28.1747 3.09877 28.3505 3.27459C28.5263 3.4504 28.6251 3.68886 28.6251 3.9375V27.1875C28.6251 27.4361 28.5263 27.6746 28.3505 27.8504C28.1747 28.0262 27.9362 28.125 27.6876 28.125ZM23.0082 26.25H26.7501V4.875H23.0082V26.25Z" fill="#15D79C"/>
</svg>
