<svg width="31" height="31" viewBox="0 0 31 31" fill="none" xmlns="http://www.w3.org/2000/svg">
<path d="M15.5 3.875C9.55832 3.875 4.64998 8.26667 4.00415 14.0792L6.58748 14.3375C7.10415 9.94583 10.9791 6.45833 15.5 6.45833C20.0208 6.45833 23.8958 9.94583 24.4125 14.4667L26.9958 14.2083C26.35 8.26667 21.4416 3.875 15.5 3.875Z" fill="#05E9F0"/>
<path d="M15.5 18.0834L12.7875 11.1084L10.4625 12.1417L13.0459 19.1167C12.1417 19.7626 11.625 20.7959 11.625 21.9584C11.625 24.1542 13.3042 25.8334 15.5 25.8334C17.6959 25.8334 19.375 24.1542 19.375 21.9584C19.375 19.7626 17.6959 18.0834 15.5 18.0834ZM16.7917 23.2501H14.2084V20.6667H16.7917V23.2501Z" fill="#05E9F0"/>
<path d="M15.5 0C6.975 0 0 6.975 0 15.5C0 24.025 6.975 31 15.5 31C24.025 31 31 24.025 31 15.5C31 6.975 24.025 0 15.5 0ZM15.5 28.4167C8.39583 28.4167 2.58333 22.6042 2.58333 15.5C2.58333 8.39583 8.39583 2.58333 15.5 2.58333C22.6042 2.58333 28.4167 8.39583 28.4167 15.5C28.4167 22.6042 22.6042 28.4167 15.5 28.4167Z" fill="#05E9F0"/>
</svg>
