<svg width="37" height="37" viewBox="0 0 37 37" fill="none" xmlns="http://www.w3.org/2000/svg">
<path d="M32.3764 14.5085H4.62642C4.40153 14.5085 4.19717 14.3781 4.10235 14.174C4.00754 13.9699 4.03963 13.7294 4.18445 13.5577L10.8398 5.66402C10.9497 5.53365 11.1113 5.4585 11.2818 5.4585H25.7225C25.893 5.4585 26.0546 5.53365 26.1645 5.66402L32.8184 13.5577C32.9632 13.7297 32.9953 13.9702 32.9005 14.174C32.8057 14.3778 32.6013 14.5085 32.3764 14.5085ZM5.87026 13.3522H31.1332L25.454 6.61475H11.5506L5.87026 13.3522Z" fill="#956FF6"/>
<path d="M18.5015 31.3051L4.1842 14.3027L5.06874 13.5581L18.5015 29.5097L31.9342 13.5581L32.8187 14.3027L18.5015 31.3051Z" fill="#956FF6"/>
<path d="M18.5014 30.9857C18.256 30.9857 18.0378 30.831 17.9563 30.5998L12.1473 14.1229C12.0834 13.9423 12.1135 13.7422 12.2268 13.5879L18.0358 5.69417C18.2531 5.39817 18.7489 5.39817 18.9668 5.69417L24.777 13.5879C24.8906 13.742 24.9204 13.9423 24.8565 14.1229L19.0463 30.5998C18.9651 30.831 18.7469 30.9857 18.5014 30.9857ZM13.3394 14.027L18.5012 28.6691L23.6641 14.027L18.5014 7.01229L13.3394 14.027Z" fill="#956FF6"/>
<path d="M13.2614 13.8286L11.851 5.93506L10.7127 6.13844L12.1232 14.0319L13.2614 13.8286Z" fill="#956FF6"/>
<path d="M26.2923 6.13807L25.1541 5.93457L23.7427 13.8284L24.8809 14.0319L26.2923 6.13807Z" fill="#956FF6"/>
</svg>
