<svg width="34" height="34" viewBox="0 0 34 34" fill="none" xmlns="http://www.w3.org/2000/svg">
<path d="M29.4671 11.0445C30.9415 14.1281 31.2214 17.6486 30.2528 20.9265C29.2841 24.2044 27.1357 27.0073 24.222 28.7942C21.3083 30.5812 17.836 31.2255 14.4752 30.6028C11.1144 29.9802 8.10335 28.1347 6.0232 25.4226C3.94305 22.7105 2.94126 19.3239 3.21117 15.9166C3.48108 12.5093 5.00355 9.32273 7.48476 6.97192C9.96597 4.62112 13.23 3.27272 16.6469 3.18697C20.0639 3.10123 23.3914 4.28421 25.9874 6.50761L28.9983 3.49542C29.1976 3.29605 29.468 3.18405 29.75 3.18405C30.0319 3.18405 30.3023 3.29605 30.5017 3.49542C30.7011 3.69479 30.8131 3.96519 30.8131 4.24714C30.8131 4.52909 30.7011 4.79949 30.5017 4.99886L17.7517 17.7489C17.5523 17.9482 17.2819 18.0602 17 18.0602C16.718 18.0602 16.4476 17.9482 16.2483 17.7489C16.0489 17.5495 15.9369 17.2791 15.9369 16.9971C15.9369 16.7152 16.0489 16.4448 16.2483 16.2454L19.9298 12.5639C18.9321 11.904 17.7408 11.6002 16.5489 11.7016C15.357 11.803 14.2342 12.3037 13.3623 13.1226C12.4903 13.9416 11.9203 15.0308 11.7445 16.2141C11.5687 17.3973 11.7973 18.6052 12.3934 19.6423C12.9895 20.6794 13.9182 21.485 15.0291 21.9286C16.14 22.3722 17.3682 22.4279 18.5147 22.0867C19.6612 21.7455 20.659 21.0273 21.3466 20.0484C22.0341 19.0696 22.3712 17.8873 22.3032 16.693C22.2953 16.5535 22.3151 16.4138 22.3612 16.2818C22.4073 16.1499 22.479 16.0284 22.5721 15.9242C22.6652 15.82 22.778 15.7351 22.9039 15.6745C23.0298 15.6138 23.1664 15.5786 23.3059 15.5707C23.5877 15.5549 23.8643 15.6516 24.0747 15.8397C24.1789 15.9328 24.2638 16.0455 24.3244 16.1714C24.3851 16.2973 24.4203 16.4339 24.4282 16.5735C24.5251 18.2639 24.0422 19.9367 23.0595 21.3156C22.0769 22.6944 20.6531 23.6967 19.0236 24.1567C17.3941 24.6167 15.6564 24.507 14.0978 23.8456C12.5391 23.1843 11.2527 22.0109 10.4513 20.5194C9.64986 19.0279 9.38132 17.3075 9.69007 15.6427C9.99882 13.978 10.8664 12.4683 12.1493 11.3634C13.4323 10.2585 15.0539 9.62437 16.746 9.5659C18.4382 9.50742 20.0997 10.0281 21.4559 11.0418L24.4773 8.02034C22.2631 6.18195 19.4477 5.22645 16.5719 5.33737C13.6961 5.44828 10.9626 6.61779 8.89655 8.62127C6.83048 10.6248 5.57746 13.3209 5.37816 16.192C5.17885 19.063 6.04732 21.9065 7.81675 24.1762C9.58618 26.4459 12.1318 27.9819 14.9647 28.4891C17.7976 28.9963 20.718 28.439 23.1651 26.9242C25.6121 25.4094 27.4132 23.0439 28.2224 20.282C29.0316 17.5202 28.7919 14.5568 27.5493 11.9609C27.4278 11.7066 27.4122 11.4144 27.5061 11.1486C27.6 10.8829 27.7957 10.6653 28.05 10.5438C28.3043 10.4223 28.5965 10.4067 28.8622 10.5006C29.128 10.5945 29.3456 10.7902 29.4671 11.0445Z" fill="#F8E74E"/>
</svg>
