<svg width="1095" height="183" viewBox="0 0 1095 183" fill="none" xmlns="http://www.w3.org/2000/svg">
<path d="M541 9V57.7165L517 88" stroke="url(#paint0_linear_3_22)" stroke-width="5.71646"/>
<path d="M541 175V139.5L512 110.5" stroke="#FFE70C" stroke-width="5.71646"/>
<path d="M508 110H251L218.5 125.5H19L3 151.5V175" stroke="url(#paint1_linear_3_22)" stroke-width="5.71646"/>
<path d="M557 110H748.506H1035.62L1085 135.684V177" stroke="#05E9F0" stroke-width="5.71646"/>
<path d="M562 88L592.125 72.4851H990.902L1016.43 88H1071.07L1092 58.4831V11" stroke="url(#paint2_linear_3_22)" stroke-width="5.71646"/>
<path d="M507 88H259.227H55.1072L20 57.7165V9" stroke="#FFE70C" stroke-width="5.71646"/>
<path d="M37.1035 54H20L57.8078 87H74.0111L37.1035 54Z" fill="#FFE70C"/>
<defs>
<linearGradient id="paint0_linear_3_22" x1="815.621" y1="46.6336" x2="547.657" y2="46.6336" gradientUnits="userSpaceOnUse">
<stop stop-color="#05E9F0"/>
<stop offset="1" stop-color="#06E7EE"/>
</linearGradient>
<linearGradient id="paint1_linear_3_22" x1="508" y1="110" x2="3.00001" y2="142.5" gradientUnits="userSpaceOnUse">
<stop stop-color="#17E6A1"/>
<stop offset="1" stop-color="#0D805A"/>
</linearGradient>
<linearGradient id="paint2_linear_3_22" x1="1092" y1="49.5" x2="562" y2="49.5" gradientUnits="userSpaceOnUse">
<stop stop-color="#A080F1"/>
<stop offset="1" stop-color="#8659FA"/>
</linearGradient>
</defs>
</svg>
