<svg width="95" height="95" viewBox="0 0 95 95" fill="none" xmlns="http://www.w3.org/2000/svg">
<g filter="url(#filter0_b_14_36)">
<path fill-rule="evenodd" clip-rule="evenodd" d="M80.9678 20.3064C83.125 24.5401 83.125 30.0823 83.125 41.1667V51.8496C83.125 52.9564 83.125 53.5099 83.1029 53.9776C82.6202 64.1725 74.4642 72.3285 64.2693 72.8112C63.8016 72.8333 63.1842 72.8333 61.9493 72.8333L61.6325 72.8337C57.594 72.8596 53.6601 74.1203 50.3589 76.4465L50.149 76.596L39.8148 83.9775C36.2722 86.508 31.6169 82.8536 33.2338 78.8114C34.3791 75.9481 32.2704 72.8333 29.1864 72.8333H26.8045C18.5592 72.8333 11.875 66.1492 11.875 57.9039V41.1667C11.875 30.0823 11.875 24.5401 14.0322 20.3064C15.9297 16.5824 18.9574 13.5547 22.6814 11.6572C26.9151 9.5 32.4573 9.5 43.5417 9.5H51.4583C62.5427 9.5 68.0849 9.5 72.3186 11.6572C76.0426 13.5547 79.0703 16.5824 80.9678 20.3064Z" fill="#29ACD6" fill-opacity="0.35"/>
<path d="M83.625 41.1667V41.143C83.625 35.6208 83.625 31.4475 83.3537 28.1268C83.0815 24.7956 82.5338 22.2785 81.4133 20.0794C79.4679 16.2613 76.3637 13.1571 72.5456 11.2117C70.3465 10.0912 67.8294 9.54348 64.4982 9.27131C61.1775 9 57.0042 9 51.482 9H51.4583H43.5417H43.518C37.9958 9 33.8225 9 30.5018 9.27131C27.1706 9.54348 24.6535 10.0912 22.4544 11.2117C18.6363 13.1571 15.5321 16.2613 13.5867 20.0794C12.4662 22.2785 11.9185 24.7956 11.6463 28.1268C11.375 31.4475 11.375 35.6208 11.375 41.143V41.1667V57.9039C11.375 66.4253 18.283 73.3333 26.8045 73.3333H29.1864C31.9166 73.3333 33.7835 76.0908 32.7695 78.6257C30.9672 83.1315 36.1564 87.2051 40.1054 84.3844L50.439 77.0033L50.4396 77.0028L50.6469 76.8553C50.647 76.8552 50.6472 76.8551 50.6473 76.855C53.8646 74.588 57.6984 73.3593 61.6341 73.3337C61.6346 73.3337 61.6352 73.3337 61.6357 73.3337L61.9493 73.3333H61.95H61.973C63.1858 73.3333 63.8134 73.3333 64.2929 73.3106C74.7454 72.8158 83.1075 64.4537 83.6023 54.0012C83.625 53.5216 83.625 52.9575 83.625 51.8692V51.8496V41.1667Z" stroke="url(#paint0_linear_14_36)" stroke-linecap="round"/>
</g>
<g filter="url(#filter1_d_14_36)">
<path d="M31.6667 30.2812C30.0272 30.2812 28.698 31.6104 28.698 33.25C28.698 34.8896 30.0272 36.2188 31.6667 36.2188H63.3334C64.973 36.2188 66.3022 34.8896 66.3022 33.25C66.3022 31.6104 64.973 30.2812 63.3334 30.2812H31.6667Z" fill="url(#paint1_linear_14_36)"/>
<path d="M39.5834 46.1146C37.9438 46.1146 36.6147 47.4437 36.6147 49.0833C36.6147 50.7229 37.9438 52.0521 39.5834 52.0521H55.4167C57.0563 52.0521 58.3855 50.7229 58.3855 49.0833C58.3855 47.4437 57.0563 46.1146 55.4167 46.1146H39.5834Z" fill="url(#paint2_linear_14_36)"/>
</g>
<defs>
<filter id="filter0_b_14_36" x="-13.125" y="-15.5" width="121.25" height="125.318" filterUnits="userSpaceOnUse" color-interpolation-filters="sRGB">
<feFlood flood-opacity="0" result="BackgroundImageFix"/>
<feGaussianBlur in="BackgroundImageFix" stdDeviation="12"/>
<feComposite in2="SourceAlpha" operator="in" result="effect1_backgroundBlur_14_36"/>
<feBlend mode="normal" in="SourceGraphic" in2="effect1_backgroundBlur_14_36" result="shape"/>
</filter>
<filter id="filter1_d_14_36" x="25.698" y="27.2812" width="53.6042" height="37.771" filterUnits="userSpaceOnUse" color-interpolation-filters="sRGB">
<feFlood flood-opacity="0" result="BackgroundImageFix"/>
<feColorMatrix in="SourceAlpha" type="matrix" values="0 0 0 0 0 0 0 0 0 0 0 0 0 0 0 0 0 0 127 0" result="hardAlpha"/>
<feOffset dx="5" dy="5"/>
<feGaussianBlur stdDeviation="4"/>
<feColorMatrix type="matrix" values="0 0 0 0 0.176471 0 0 0 0 0.556863 0 0 0 0 0.678431 0 0 0 0.5 0"/>
<feBlend mode="normal" in2="BackgroundImageFix" result="effect1_dropShadow_14_36"/>
<feBlend mode="normal" in="SourceGraphic" in2="effect1_dropShadow_14_36" result="shape"/>
</filter>
<linearGradient id="paint0_linear_14_36" x1="11.875" y1="9.5" x2="87.1058" y2="80.6005" gradientUnits="userSpaceOnUse">
<stop stop-color="white" stop-opacity="0.25"/>
<stop offset="1" stop-color="white" stop-opacity="0"/>
</linearGradient>
<linearGradient id="paint1_linear_14_36" x1="47.8167" y1="56.6902" x2="74.1357" y2="12.1282" gradientUnits="userSpaceOnUse">
<stop stop-color="white"/>
<stop offset="1" stop-color="white" stop-opacity="0.2"/>
</linearGradient>
<linearGradient id="paint2_linear_14_36" x1="47.8167" y1="56.6902" x2="74.1357" y2="12.1282" gradientUnits="userSpaceOnUse">
<stop stop-color="white"/>
<stop offset="1" stop-color="white" stop-opacity="0.2"/>
</linearGradient>
</defs>
</svg>
