<svg width="20" height="9" viewBox="0 0 20 9" fill="none" xmlns="http://www.w3.org/2000/svg">
<path d="M6.048 0.319999L5.688 3.56L8.964 2.642L9.252 4.856L6.264 5.072L8.226 7.682L6.228 8.744L4.86 5.99L3.654 8.726L1.584 7.682L3.528 5.072L0.558 4.838L0.9 2.642L4.104 3.56L3.744 0.319999H6.048ZM15.8566 0.319999L15.4966 3.56L18.7726 2.642L19.0606 4.856L16.0726 5.072L18.0346 7.682L16.0366 8.744L14.6686 5.99L13.4626 8.726L11.3926 7.682L13.3366 5.072L10.3666 4.838L10.7086 2.642L13.9126 3.56L13.5526 0.319999H15.8566Z" fill="black"/>
</svg>
