<svg width="80" height="80" viewBox="0 0 80 80" fill="none" xmlns="http://www.w3.org/2000/svg">
<g filter="url(#filter0_b_14_62)">
<circle cx="40" cy="40" r="37" fill="#29ACD6" fill-opacity="0.35"/>
<circle cx="40" cy="40" r="37.5" stroke="url(#paint0_linear_14_62)" stroke-linecap="round"/>
</g>
<g filter="url(#filter1_d_14_62)">
<path d="M32.3372 27.767L38.4518 17.8817C39.1751 16.7123 40.4564 16 41.8365 16C44.2722 16 46.1349 18.16 45.7645 20.5552L45.0983 24.8636C44.3776 29.5242 48.002 33.7273 52.7416 33.7273H54.6325C61.5872 33.7273 66.1105 41.0087 63.0002 47.1974L59.8518 53.462C57.5301 58.0818 52.784 61 47.5924 61H39.6157C35.9207 61 32.6526 59.1818 30.666 56.3955C30.6928 56.1158 30.7065 55.8322 30.7065 55.5455V33.7273C30.7065 32.8245 30.5708 31.9533 30.3187 31.1327C30.8045 30.2449 31.4514 29.1991 32.3372 27.767Z" fill="url(#paint1_linear_14_62)"/>
<path d="M26.5945 55.5455C26.5945 58.1814 24.4467 60.3182 21.7973 60.3182C19.1478 60.3182 17 58.1814 17 55.5455V33.7273C17 31.0914 19.1478 28.9545 21.7973 28.9545C24.4467 28.9545 26.5945 31.0914 26.5945 33.7273V55.5455Z" fill="url(#paint2_linear_14_62)"/>
</g>
<defs>
<filter id="filter0_b_14_62" x="-22" y="-22" width="124" height="124" filterUnits="userSpaceOnUse" color-interpolation-filters="sRGB">
<feFlood flood-opacity="0" result="BackgroundImageFix"/>
<feGaussianBlur in="BackgroundImageFix" stdDeviation="12"/>
<feComposite in2="SourceAlpha" operator="in" result="effect1_backgroundBlur_14_62"/>
<feBlend mode="normal" in="SourceGraphic" in2="effect1_backgroundBlur_14_62" result="shape"/>
</filter>
<filter id="filter1_d_14_62" x="14" y="13" width="63" height="61" filterUnits="userSpaceOnUse" color-interpolation-filters="sRGB">
<feFlood flood-opacity="0" result="BackgroundImageFix"/>
<feColorMatrix in="SourceAlpha" type="matrix" values="0 0 0 0 0 0 0 0 0 0 0 0 0 0 0 0 0 0 127 0" result="hardAlpha"/>
<feOffset dx="5" dy="5"/>
<feGaussianBlur stdDeviation="4"/>
<feColorMatrix type="matrix" values="0 0 0 0 0.176471 0 0 0 0 0.556863 0 0 0 0 0.678431 0 0 0 0.5 0"/>
<feBlend mode="normal" in2="BackgroundImageFix" result="effect1_dropShadow_14_62"/>
<feBlend mode="normal" in="SourceGraphic" in2="effect1_dropShadow_14_62" result="shape"/>
</filter>
<linearGradient id="paint0_linear_14_62" x1="3" y1="3" x2="77.0375" y2="76.9625" gradientUnits="userSpaceOnUse">
<stop stop-color="white" stop-opacity="0.25"/>
<stop offset="1" stop-color="white" stop-opacity="0"/>
</linearGradient>
<linearGradient id="paint1_linear_14_62" x1="40.8958" y1="70.5869" x2="102.998" y2="7.00574" gradientUnits="userSpaceOnUse">
<stop stop-color="white"/>
<stop offset="1" stop-color="white" stop-opacity="0.2"/>
</linearGradient>
<linearGradient id="paint2_linear_14_62" x1="40.8958" y1="70.5869" x2="102.998" y2="7.00574" gradientUnits="userSpaceOnUse">
<stop stop-color="white"/>
<stop offset="1" stop-color="white" stop-opacity="0.2"/>
</linearGradient>
</defs>
</svg>
