<svg width="80" height="80" viewBox="0 0 80 80" fill="none" xmlns="http://www.w3.org/2000/svg">
<g clip-path="url(#clip0_14_32)">
<g filter="url(#filter0_b_14_32)">
<g filter="url(#filter1_b_14_32)">
<circle cx="40" cy="40" r="37" fill="#29ACD6" fill-opacity="0.35"/>
<circle cx="40" cy="40" r="37.5" stroke="url(#paint0_linear_14_32)" stroke-linecap="round"/>
</g>
<g filter="url(#filter2_d_14_32)">
<path d="M37.3023 17C31.4455 17 26.6977 21.772 26.6977 27.6585C26.6977 33.5451 31.4455 38.3171 37.3023 38.3171C43.1591 38.3171 47.907 33.5451 47.907 27.6585C47.907 21.772 43.1591 17 37.3023 17Z" fill="url(#paint1_linear_14_32)"/>
<path d="M61.3023 32.1463C61.3023 31.2169 60.5527 30.4634 59.6279 30.4634C58.7032 30.4634 57.9535 31.2169 57.9535 32.1463V37.1951H52.9302C52.0055 37.1951 51.2558 37.9486 51.2558 38.878C51.2558 39.8075 52.0055 40.561 52.9302 40.561H57.9535V45.6098C57.9535 46.5392 58.7032 47.2927 59.6279 47.2927C60.5527 47.2927 61.3023 46.5392 61.3023 45.6098V40.561H66.3256C67.2503 40.561 68 39.8075 68 38.878C68 37.9486 67.2503 37.1951 66.3256 37.1951H61.3023V32.1463Z" fill="url(#paint2_linear_14_32)"/>
<path d="M30.6047 41.6829C24.7479 41.6829 20 46.4549 20 52.3415C20 58.228 24.7479 63 30.6047 63H44C49.8568 63 54.6047 58.228 54.6047 52.3415C54.6047 46.4549 49.8568 41.6829 44 41.6829H30.6047Z" fill="url(#paint3_linear_14_32)"/>
</g>
</g>
</g>
<defs>
<filter id="filter0_b_14_32" x="-22" y="-22" width="124" height="124" filterUnits="userSpaceOnUse" color-interpolation-filters="sRGB">
<feFlood flood-opacity="0" result="BackgroundImageFix"/>
<feGaussianBlur in="BackgroundImageFix" stdDeviation="12"/>
<feComposite in2="SourceAlpha" operator="in" result="effect1_backgroundBlur_14_32"/>
<feBlend mode="normal" in="SourceGraphic" in2="effect1_backgroundBlur_14_32" result="shape"/>
</filter>
<filter id="filter1_b_14_32" x="-22" y="-22" width="124" height="124" filterUnits="userSpaceOnUse" color-interpolation-filters="sRGB">
<feFlood flood-opacity="0" result="BackgroundImageFix"/>
<feGaussianBlur in="BackgroundImageFix" stdDeviation="12"/>
<feComposite in2="SourceAlpha" operator="in" result="effect1_backgroundBlur_14_32"/>
<feBlend mode="normal" in="SourceGraphic" in2="effect1_backgroundBlur_14_32" result="shape"/>
</filter>
<filter id="filter2_d_14_32" x="17" y="14" width="64" height="62" filterUnits="userSpaceOnUse" color-interpolation-filters="sRGB">
<feFlood flood-opacity="0" result="BackgroundImageFix"/>
<feColorMatrix in="SourceAlpha" type="matrix" values="0 0 0 0 0 0 0 0 0 0 0 0 0 0 0 0 0 0 127 0" result="hardAlpha"/>
<feOffset dx="5" dy="5"/>
<feGaussianBlur stdDeviation="4"/>
<feColorMatrix type="matrix" values="0 0 0 0 0.176471 0 0 0 0 0.556863 0 0 0 0 0.678431 0 0 0 0.5 0"/>
<feBlend mode="normal" in2="BackgroundImageFix" result="effect1_dropShadow_14_32"/>
<feBlend mode="normal" in="SourceGraphic" in2="effect1_dropShadow_14_32" result="shape"/>
</filter>
<linearGradient id="paint0_linear_14_32" x1="3" y1="3" x2="77.0375" y2="76.9625" gradientUnits="userSpaceOnUse">
<stop stop-color="white" stop-opacity="0.25"/>
<stop offset="1" stop-color="white" stop-opacity="0"/>
</linearGradient>
<linearGradient id="paint1_linear_14_32" x1="44.4042" y1="72.8" x2="107.888" y2="7.86461" gradientUnits="userSpaceOnUse">
<stop stop-color="white"/>
<stop offset="1" stop-color="white" stop-opacity="0.2"/>
</linearGradient>
<linearGradient id="paint2_linear_14_32" x1="44.4042" y1="72.8" x2="107.888" y2="7.86461" gradientUnits="userSpaceOnUse">
<stop stop-color="white"/>
<stop offset="1" stop-color="white" stop-opacity="0.2"/>
</linearGradient>
<linearGradient id="paint3_linear_14_32" x1="44.4042" y1="72.8" x2="107.888" y2="7.86461" gradientUnits="userSpaceOnUse">
<stop stop-color="white"/>
<stop offset="1" stop-color="white" stop-opacity="0.2"/>
</linearGradient>
<clipPath id="clip0_14_32">
<rect width="80" height="80" fill="white"/>
</clipPath>
</defs>
</svg>
