<svg width="36" height="36" viewBox="0 0 36 36" fill="none" xmlns="http://www.w3.org/2000/svg">
<path d="M17.9987 9V27M22.4987 14.25C22.4987 12.18 20.4842 10.5 17.9987 10.5C15.5132 10.5 13.4987 12.18 13.4987 14.25C13.4987 16.32 15.5132 18 17.9987 18C20.4842 18 22.4987 19.68 22.4987 21.75C22.4987 23.82 20.4842 25.5 17.9987 25.5C15.5132 25.5 13.4987 23.82 13.4987 21.75" stroke="#F8E74E" stroke-width="2.75" stroke-linecap="round"/>
<path d="M10.499 5.00702C12.7783 3.68837 15.3658 2.99596 17.999 3.00002C26.2835 3.00002 32.999 9.71552 32.999 18C32.999 26.2845 26.2835 33 17.999 33C9.71452 33 2.99902 26.2845 2.99902 18C2.99902 15.2685 3.72952 12.705 5.00602 10.5" stroke="#F8E74E" stroke-width="2.75" stroke-linecap="round"/>
</svg>
