<svg width="32" height="32" viewBox="0 0 32 32" fill="none" xmlns="http://www.w3.org/2000/svg">
<circle cx="16" cy="16" r="15.1226" stroke="#F8E74E" stroke-width="1.75488"/>
<path fill-rule="evenodd" clip-rule="evenodd" d="M18.8415 8.77269H14.6142C14.4802 9.34032 14.1567 9.86132 13.684 10.271C13.2112 10.6807 12.6101 10.9611 11.9551 11.0772C11.9549 11.2479 11.9549 11.4186 11.9551 11.5894C12.6101 11.7055 13.2112 11.9859 13.684 12.3956C14.1567 12.8053 14.4802 13.3263 14.6142 13.8939H18.8415C18.9756 13.3263 19.299 12.8053 19.7717 12.3956C20.2445 11.9859 20.8456 11.7055 21.5006 11.5894C21.5008 11.4186 21.5008 11.2479 21.5006 11.0772C20.8456 10.9611 20.2445 10.6807 19.7717 10.271C19.299 9.86132 18.9756 9.34032 18.8415 8.77269ZM19.3915 7.59323C19.1415 7.59087 18.876 7.59087 18.5933 7.59087H14.8624C14.5806 7.59087 14.3142 7.59087 14.0651 7.59323C14.0155 7.58936 13.9655 7.59015 13.916 7.5956C13.5051 7.6019 13.1406 7.61687 12.8242 7.6539C12.2533 7.72008 11.7379 7.86663 11.3242 8.22511C10.9097 8.58439 10.7406 9.03111 10.6642 9.52511C10.6215 9.80008 10.6042 10.116 10.597 10.4721C10.5907 10.5147 10.5898 10.5578 10.5942 10.6006C10.5915 10.8172 10.5915 11.0481 10.5915 11.2923V11.3743C10.5915 11.6185 10.5915 11.8494 10.5942 12.066C10.5898 12.1088 10.5907 12.1518 10.597 12.1944C10.6042 12.5514 10.6215 12.8665 10.6642 13.1407C10.7406 13.6355 10.9097 14.0822 11.3242 14.4407C11.7379 14.8 12.2533 14.9465 12.8242 15.0127C13.1406 15.0497 13.5051 15.0647 13.916 15.071C13.9655 15.0765 14.0155 15.0773 14.0651 15.0734C14.3142 15.0757 14.5806 15.0757 14.8624 15.0757H18.5933C18.8751 15.0757 19.1415 15.0757 19.3915 15.0734C19.4408 15.0773 19.4905 15.0765 19.5397 15.071C19.9515 15.0647 20.316 15.0497 20.6315 15.0127C21.2024 14.9465 21.7179 14.8 22.1315 14.4407C22.546 14.0822 22.7151 13.6355 22.7915 13.1407C22.8346 12.8266 22.857 12.5107 22.8588 12.1944C22.8649 12.1518 22.8659 12.1088 22.8615 12.066C22.8642 11.8494 22.8642 11.6185 22.8642 11.3743V11.2923C22.8642 11.0481 22.8642 10.8172 22.8615 10.6006C22.866 10.5578 22.8651 10.5147 22.8588 10.4721C22.8569 10.1559 22.8344 9.83997 22.7915 9.5259C22.7151 9.03111 22.546 8.58439 22.1324 8.2259C21.7179 7.86663 21.2024 7.72008 20.6324 7.6539C20.2697 7.61665 19.9049 7.59719 19.5397 7.5956C19.4905 7.59018 19.4408 7.58939 19.3915 7.59323ZM20.2679 8.80736C20.3708 9.04307 20.5304 9.25713 20.736 9.43534C20.9416 9.61355 21.1886 9.75184 21.4606 9.84105C21.4549 9.78841 21.4479 9.73587 21.4397 9.68348C21.3842 9.31948 21.286 9.16348 21.167 9.06105C21.0488 8.95863 20.8697 8.87433 20.4506 8.82469C20.3901 8.81785 20.3295 8.81207 20.2688 8.80736M21.4615 12.8255C21.1895 12.9147 20.9425 13.053 20.7369 13.2313C20.5313 13.4095 20.3717 13.6235 20.2688 13.8592C20.3324 13.8545 20.3933 13.8482 20.4506 13.8419C20.8706 13.7923 21.0506 13.708 21.1688 13.6055C21.287 13.5031 21.3851 13.3471 21.4415 12.9831C21.4488 12.9335 21.456 12.8807 21.4615 12.8255ZM13.1888 13.8592C13.0858 13.6235 12.9263 13.4095 12.7206 13.2313C12.515 13.053 12.268 12.9147 11.996 12.8255C12.0024 12.8807 12.0088 12.9335 12.017 12.9831C12.0733 13.3471 12.1706 13.5031 12.2897 13.6055C12.4079 13.708 12.587 13.7923 13.006 13.8419C13.0642 13.8482 13.1251 13.8545 13.1888 13.8592ZM11.996 9.84105C12.268 9.75184 12.515 9.61355 12.7206 9.43534C12.9263 9.25713 13.0858 9.04307 13.1888 8.80736C13.1251 8.81208 13.0642 8.81839 13.007 8.82548C12.587 8.87433 12.407 8.95863 12.2888 9.06184C12.1706 9.16427 12.0733 9.31948 12.016 9.68269L11.996 9.84105ZM16.7279 11.1363C16.6676 11.1363 16.6098 11.1571 16.5672 11.194C16.5245 11.231 16.5006 11.2811 16.5006 11.3333C16.5006 11.3855 16.5245 11.4356 16.5672 11.4726C16.6098 11.5095 16.6676 11.5303 16.7279 11.5303C16.7881 11.5303 16.8459 11.5095 16.8886 11.4726C16.9312 11.4356 16.9551 11.3855 16.9551 11.3333C16.9551 11.2811 16.9312 11.231 16.8886 11.194C16.8459 11.1571 16.7881 11.1363 16.7279 11.1363ZM15.137 11.3333C15.137 10.9676 15.3046 10.6169 15.6029 10.3583C15.9013 10.0998 16.3059 9.95451 16.7279 9.95451C17.1498 9.95451 17.5545 10.0998 17.8528 10.3583C18.1512 10.6169 18.3188 10.9676 18.3188 11.3333C18.3188 11.699 18.1512 12.0497 17.8528 12.3082C17.5545 12.5668 17.1498 12.7121 16.7279 12.7121C16.3059 12.7121 15.9013 12.5668 15.6029 12.3082C15.3046 12.0497 15.137 11.699 15.137 11.3333ZM13.7133 17.2014C15.4097 16.917 17.2251 16.9808 18.6951 17.7403C18.9006 17.8467 19.0951 17.9798 19.2633 18.1437C19.6051 18.477 19.7815 18.8898 19.7897 19.3043C19.9633 19.2074 20.1379 19.0994 20.3142 18.9836L21.9579 17.9081C22.3695 17.6459 22.867 17.5044 23.3779 17.5044C23.8887 17.5044 24.3863 17.6459 24.7979 17.9081C25.557 18.4045 25.8606 19.2972 25.316 20.0535C24.9297 20.5901 24.3479 21.3331 23.7551 21.8089C23.1551 22.2895 22.3033 22.6945 21.6588 22.964C20.8751 23.2917 20.0297 23.4729 19.207 23.588C17.5251 23.8243 15.776 23.7881 14.1142 23.4911C13.2572 23.3382 12.3846 23.2609 11.5097 23.2602H9.45513C9.2743 23.2602 9.10088 23.1979 8.97301 23.0871C8.84515 22.9763 8.77331 22.826 8.77331 22.6693C8.77331 22.5126 8.84515 22.3623 8.97301 22.2515C9.10088 22.1406 9.2743 22.0784 9.45513 22.0784H11.5097C12.4751 22.0784 13.4506 22.1658 14.3897 22.3337C15.9044 22.603 17.4628 22.6327 18.9897 22.4211C19.7424 22.3155 20.446 22.1587 21.066 21.8995C21.687 21.6395 22.3851 21.2976 22.8279 20.9423C23.276 20.5822 23.777 19.959 24.1597 19.428C24.2751 19.2672 24.2588 19.0364 23.976 18.8512C23.6397 18.6306 23.1151 18.6306 22.7797 18.8512L21.137 19.9267C20.4806 20.3561 19.6733 20.8154 18.6724 20.9541C18.5676 20.9685 18.4624 20.9811 18.357 20.9919C17.72 21.0556 17.077 21.0609 16.4388 21.0077C16.348 21.0022 16.2595 20.9811 16.1783 20.9456C16.0971 20.91 16.025 20.8608 15.9661 20.8007C15.9072 20.7406 15.8628 20.671 15.8355 20.5958C15.8081 20.5206 15.7984 20.4415 15.8069 20.363C15.8154 20.2845 15.8419 20.2083 15.8849 20.1388C15.9279 20.0694 15.9865 20.0081 16.0572 19.9586C16.128 19.909 16.2094 19.8722 16.2968 19.8504C16.3842 19.8285 16.4757 19.8221 16.566 19.8314C17.0704 19.8738 17.5783 19.873 18.0824 19.829L18.1097 19.8266C18.1945 19.781 18.2666 19.7196 18.3207 19.647C18.3749 19.5743 18.4097 19.4921 18.4227 19.4063C18.4358 19.3205 18.4267 19.2333 18.3962 19.151C18.3656 19.0686 18.3143 18.9931 18.246 18.93C18.1736 18.8609 18.0893 18.8019 17.996 18.7551C16.9224 18.1997 15.4879 18.1075 13.9724 18.3612C12.4922 18.6193 11.0889 19.1382 9.84968 19.8857C9.77661 19.9306 9.69406 19.9626 9.60673 19.9799C9.5194 19.9971 9.42901 19.9993 9.34071 19.9863C9.25241 19.9733 9.16793 19.9453 9.09211 19.904C9.01628 19.8627 8.95058 19.8088 8.89877 19.7455C8.84696 19.6822 8.81004 19.6106 8.79013 19.5349C8.77022 19.4592 8.76771 19.3809 8.78274 19.3044C8.79776 19.2278 8.83003 19.1546 8.87771 19.0889C8.92538 19.0232 8.98752 18.9663 9.06059 18.9214C10.4584 18.0767 12.0424 17.4912 13.7133 17.2014Z" fill="#F8E74E"/>
</svg>
