<svg width="32" height="32" viewBox="0 0 32 32" fill="none" xmlns="http://www.w3.org/2000/svg">
<circle cx="15.9999" cy="16" r="15.125" stroke="#F8E74E" stroke-width="1.75"/>
<g clip-path="url(#clip0_14_1083)">
<path d="M23.7704 16.3398L22.2267 17.1086L20.2267 13.2836L21.7892 12.5023C21.9053 12.4432 22.0401 12.4323 22.1642 12.4721C22.2883 12.5119 22.3917 12.5992 22.4517 12.7148L23.9892 15.6586C24.0204 15.7175 24.0394 15.7821 24.0453 15.8485C24.0512 15.9149 24.0437 15.9818 24.0233 16.0453C24.0029 16.1088 23.97 16.1675 23.9266 16.2181C23.8832 16.2687 23.8301 16.3101 23.7704 16.3398Z" stroke="#F8E74E" stroke-width="1.11364" stroke-linecap="round" stroke-linejoin="round"/>
<path d="M11.2257 17.0463L9.68197 16.2713C9.62253 16.2422 9.56956 16.2014 9.5262 16.1513C9.48284 16.1013 9.44997 16.0431 9.42957 15.9801C9.40916 15.9172 9.40162 15.8507 9.4074 15.7848C9.41319 15.7188 9.43217 15.6547 9.46322 15.5963L11.0007 12.6525C11.0609 12.5369 11.1638 12.4494 11.2875 12.4085C11.4113 12.3677 11.5461 12.3767 11.6632 12.4338L13.2257 13.215L11.2257 17.0463Z" stroke="#F8E74E" stroke-width="1.11364" stroke-linecap="round" stroke-linejoin="round"/>
<path d="M22.2267 17.1089L21.2267 18.2839L18.9267 20.5839C18.864 20.6425 18.788 20.6851 18.7053 20.7079C18.6226 20.7308 18.5356 20.7333 18.4517 20.7151L14.8267 19.8089C14.7605 19.7904 14.6988 19.7585 14.6454 19.7151L11.2267 17.0464" stroke="#F8E74E" stroke-width="1.11364" stroke-linecap="round" stroke-linejoin="round"/>
<path d="M21.2261 18.2835L18.4761 16.2835L17.6761 16.8835C17.3295 17.1421 16.9086 17.2819 16.4761 17.2819C16.0436 17.2819 15.6227 17.1421 15.2761 16.8835L14.9386 16.6272C14.8816 16.5838 14.8344 16.5288 14.8001 16.4658C14.7659 16.4028 14.7455 16.3332 14.7402 16.2617C14.7348 16.1903 14.7448 16.1184 14.7693 16.0511C14.7938 15.9837 14.8324 15.9223 14.8824 15.871L17.3324 13.4272C17.3784 13.3814 17.433 13.3451 17.4931 13.3205C17.5531 13.2958 17.6175 13.2832 17.6824 13.2835H20.2261" stroke="#F8E74E" stroke-width="1.11364" stroke-linecap="round" stroke-linejoin="round"/>
<path d="M13.264 13.2147L16.4703 12.2772C16.5842 12.2445 16.706 12.2534 16.814 12.3022L18.9765 13.2834" stroke="#F8E74E" stroke-width="1.11364" stroke-linecap="round" stroke-linejoin="round"/>
<path d="M11.8696 14.7016L11.025 14.4883C10.9906 14.4806 10.9587 14.4641 10.9324 14.4406L10.2982 13.8906" stroke="#F8E74E" stroke-width="0.5" stroke-linecap="round" stroke-linejoin="round"/>
</g>
<defs>
<clipPath id="clip0_14_1083">
<rect width="16" height="16" fill="white" transform="translate(8.72681 8.72729)"/>
</clipPath>
</defs>
</svg>
