<svg width="34" height="34" viewBox="0 0 34 34" fill="none" xmlns="http://www.w3.org/2000/svg">
<path d="M29.4671 11.0447C30.9415 14.1284 31.2214 17.6489 30.2528 20.9267C29.2841 24.2046 27.1357 27.0075 24.222 28.7944C21.3083 30.5814 17.836 31.2257 14.4752 30.6031C11.1144 29.9805 8.10335 28.135 6.0232 25.4228C3.94305 22.7107 2.94126 19.3242 3.21117 15.9169C3.48108 12.5095 5.00355 9.32297 7.48476 6.97217C9.96597 4.62136 13.23 3.27296 16.6469 3.18722C20.0639 3.10147 23.3914 4.28445 25.9874 6.50785L28.9983 3.49567C29.1976 3.2963 29.468 3.18429 29.75 3.18429C30.0319 3.18429 30.3023 3.2963 30.5017 3.49567C30.7011 3.69503 30.8131 3.96543 30.8131 4.24738C30.8131 4.52933 30.7011 4.79973 30.5017 4.9991L17.7517 17.7491C17.5523 17.9485 17.2819 18.0605 17 18.0605C16.718 18.0605 16.4476 17.9485 16.2483 17.7491C16.0489 17.5497 15.9369 17.2793 15.9369 16.9974C15.9369 16.7154 16.0489 16.445 16.2483 16.2457L19.9298 12.5641C18.9321 11.9042 17.7408 11.6004 16.5489 11.7018C15.357 11.8032 14.2342 12.3039 13.3623 13.1229C12.4903 13.9418 11.9203 15.0311 11.7445 16.2143C11.5687 17.3975 11.7973 18.6055 12.3934 19.6426C12.9895 20.6797 13.9182 21.4852 15.0291 21.9289C16.14 22.3725 17.3682 22.4282 18.5147 22.087C19.6612 21.7457 20.659 21.0276 21.3466 20.0487C22.0341 19.0698 22.3712 17.8875 22.3032 16.6932C22.2953 16.5537 22.3151 16.414 22.3612 16.2821C22.4073 16.1502 22.479 16.0287 22.5721 15.9244C22.6652 15.8202 22.778 15.7354 22.9039 15.6747C23.0298 15.6141 23.1664 15.5788 23.3059 15.571C23.5877 15.5551 23.8643 15.6519 24.0747 15.8399C24.1789 15.933 24.2638 16.0458 24.3244 16.1717C24.3851 16.2976 24.4203 16.4342 24.4282 16.5737C24.5251 18.2641 24.0422 19.937 23.0595 21.3158C22.0769 22.6946 20.6531 23.6969 19.0236 24.1569C17.3941 24.617 15.6564 24.5072 14.0978 23.8459C12.5391 23.1845 11.2527 22.0111 10.4513 20.5196C9.64986 19.0281 9.38132 17.3078 9.69007 15.643C9.99882 13.9782 10.8664 12.4686 12.1493 11.3636C13.4323 10.2587 15.0539 9.62461 16.746 9.56614C18.4382 9.50767 20.0997 10.0283 21.4559 11.0421L24.4773 8.02059C22.2631 6.18219 19.4477 5.22669 16.5719 5.33761C13.6961 5.44853 10.9626 6.61804 8.89655 8.62152C6.83048 10.625 5.57746 13.3212 5.37816 16.1922C5.17885 19.0633 6.04732 21.9067 7.81675 24.1765C9.58618 26.4462 12.1318 27.9822 14.9647 28.4894C17.7976 28.9966 20.718 28.4393 23.1651 26.9244C25.6121 25.4096 27.4132 23.0441 28.2224 20.2823C29.0316 17.5204 28.7919 14.557 27.5493 11.9611C27.4278 11.7068 27.4122 11.4146 27.5061 11.1489C27.6 10.8831 27.7957 10.6655 28.05 10.544C28.3043 10.4225 28.5965 10.407 28.8622 10.5009C29.128 10.5948 29.3456 10.7904 29.4671 11.0447Z" fill="#F8E74E"/>
</svg>
