<svg width="201" height="201" viewBox="0 0 201 201" fill="none" xmlns="http://www.w3.org/2000/svg">
<path d="M67.0001 0H60.9092V6.09091H67.0001V0Z" fill="white"/>
<path d="M79.1817 0H73.0908V6.09091H79.1817V0Z" fill="white"/>
<path d="M97.4543 0H91.3634V6.09091H97.4543V0Z" fill="white"/>
<path d="M103.545 0H97.4546V6.09091H103.545V0Z" fill="white"/>
<path d="M115.727 0H109.636V6.09091H115.727V0Z" fill="white"/>
<path d="M121.818 0H115.727V6.09091H121.818V0Z" fill="white"/>
<path d="M140.091 0H134V6.09091H140.091V0Z" fill="white"/>
<path d="M146.182 0H140.091V6.09091H146.182V0Z" fill="white"/>
<path d="M60.909 6.09082H54.8181V12.1817H60.909V6.09082Z" fill="white"/>
<path d="M67.0001 6.09082H60.9092V12.1817H67.0001V6.09082Z" fill="white"/>
<path d="M73.0909 6.09082H67V12.1817H73.0909V6.09082Z" fill="white"/>
<path d="M79.1817 6.09082H73.0908V12.1817H79.1817V6.09082Z" fill="white"/>
<path d="M97.4543 6.09082H91.3634V12.1817H97.4543V6.09082Z" fill="white"/>
<path d="M103.545 6.09082H97.4546V12.1817H103.545V6.09082Z" fill="white"/>
<path d="M109.636 6.09082H103.545V12.1817H109.636V6.09082Z" fill="white"/>
<path d="M127.909 6.09082H121.818V12.1817H127.909V6.09082Z" fill="white"/>
<path d="M134 6.09082H127.909V12.1817H134V6.09082Z" fill="white"/>
<path d="M146.182 6.09082H140.091V12.1817H146.182V6.09082Z" fill="white"/>
<path d="M60.909 12.1819H54.8181V18.2728H60.909V12.1819Z" fill="white"/>
<path d="M73.0909 12.1819H67V18.2728H73.0909V12.1819Z" fill="white"/>
<path d="M79.1817 12.1819H73.0908V18.2728H79.1817V12.1819Z" fill="white"/>
<path d="M91.3636 12.1819H85.2727V18.2728H91.3636V12.1819Z" fill="white"/>
<path d="M103.545 12.1819H97.4546V18.2728H103.545V12.1819Z" fill="white"/>
<path d="M109.636 12.1819H103.545V18.2728H109.636V12.1819Z" fill="white"/>
<path d="M121.818 12.1819H115.727V18.2728H121.818V12.1819Z" fill="white"/>
<path d="M127.909 12.1819H121.818V18.2728H127.909V12.1819Z" fill="white"/>
<path d="M140.091 12.1819H134V18.2728H140.091V12.1819Z" fill="white"/>
<path d="M60.909 18.2727H54.8181V24.3636H60.909V18.2727Z" fill="white"/>
<path d="M67.0001 18.2727H60.9092V24.3636H67.0001V18.2727Z" fill="white"/>
<path d="M85.2728 18.2727H79.1819V24.3636H85.2728V18.2727Z" fill="white"/>
<path d="M97.4543 18.2727H91.3634V24.3636H97.4543V18.2727Z" fill="white"/>
<path d="M109.636 18.2727H103.545V24.3636H109.636V18.2727Z" fill="white"/>
<path d="M134 18.2727H127.909V24.3636H134V18.2727Z" fill="white"/>
<path d="M152.273 18.2727H146.182V24.3636H152.273V18.2727Z" fill="white"/>
<path d="M60.909 24.3638H54.8181V30.4547H60.909V24.3638Z" fill="white"/>
<path d="M67.0001 24.3638H60.9092V30.4547H67.0001V24.3638Z" fill="white"/>
<path d="M79.1817 24.3638H73.0908V30.4547H79.1817V24.3638Z" fill="white"/>
<path d="M85.2728 24.3638H79.1819V30.4547H85.2728V24.3638Z" fill="white"/>
<path d="M103.545 24.3638H97.4546V30.4547H103.545V24.3638Z" fill="white"/>
<path d="M121.818 24.3638H115.727V30.4547H121.818V24.3638Z" fill="white"/>
<path d="M146.182 24.3638H140.091V30.4547H146.182V24.3638Z" fill="white"/>
<path d="M54.8182 30.4546H48.7273V36.5455H54.8182V30.4546Z" fill="white"/>
<path d="M60.909 30.4546H54.8181V36.5455H60.909V30.4546Z" fill="white"/>
<path d="M73.0909 30.4546H67V36.5455H73.0909V30.4546Z" fill="white"/>
<path d="M85.2728 30.4546H79.1819V36.5455H85.2728V30.4546Z" fill="white"/>
<path d="M91.3636 30.4546H85.2727V36.5455H91.3636V30.4546Z" fill="white"/>
<path d="M109.636 30.4546H103.545V36.5455H109.636V30.4546Z" fill="white"/>
<path d="M127.909 30.4546H121.818V36.5455H127.909V30.4546Z" fill="white"/>
<path d="M134 30.4546H127.909V36.5455H134V30.4546Z" fill="white"/>
<path d="M140.091 30.4546H134V36.5455H140.091V30.4546Z" fill="white"/>
<path d="M152.273 30.4546H146.182V36.5455H152.273V30.4546Z" fill="white"/>
<path d="M54.8182 36.5457H48.7273V42.6366H54.8182V36.5457Z" fill="white"/>
<path d="M67.0001 36.5457H60.9092V42.6366H67.0001V36.5457Z" fill="white"/>
<path d="M79.1817 36.5457H73.0908V42.6366H79.1817V36.5457Z" fill="white"/>
<path d="M91.3636 36.5457H85.2727V42.6366H91.3636V36.5457Z" fill="white"/>
<path d="M103.545 36.5457H97.4546V42.6366H103.545V36.5457Z" fill="white"/>
<path d="M115.727 36.5457H109.636V42.6366H115.727V36.5457Z" fill="white"/>
<path d="M127.909 36.5457H121.818V42.6366H127.909V36.5457Z" fill="white"/>
<path d="M140.091 36.5457H134V42.6366H140.091V36.5457Z" fill="white"/>
<path d="M152.273 36.5457H146.182V42.6366H152.273V36.5457Z" fill="white"/>
<path d="M60.909 42.6365H54.8181V48.7274H60.909V42.6365Z" fill="white"/>
<path d="M73.0909 42.6365H67V48.7274H73.0909V42.6365Z" fill="white"/>
<path d="M109.636 42.6365H103.545V48.7274H109.636V42.6365Z" fill="white"/>
<path d="M115.727 42.6365H109.636V48.7274H115.727V42.6365Z" fill="white"/>
<path d="M121.818 42.6365H115.727V48.7274H121.818V42.6365Z" fill="white"/>
<path d="M127.909 42.6365H121.818V48.7274H127.909V42.6365Z" fill="white"/>
<path d="M134 42.6365H127.909V48.7274H134V42.6365Z" fill="white"/>
<path d="M140.091 42.6365H134V48.7274H140.091V42.6365Z" fill="white"/>
<path d="M6.09091 48.7275H0V54.8184H6.09091V48.7275Z" fill="white"/>
<path d="M24.3636 48.7275H18.2727V54.8184H24.3636V48.7275Z" fill="white"/>
<path d="M36.5455 48.7275H30.4546V54.8184H36.5455V48.7275Z" fill="white"/>
<path d="M42.6363 48.7275H36.5454V54.8184H42.6363V48.7275Z" fill="white"/>
<path d="M54.8182 48.7275H48.7273V54.8184H54.8182V48.7275Z" fill="white"/>
<path d="M73.0909 48.7275H67V54.8184H73.0909V48.7275Z" fill="white"/>
<path d="M85.2728 48.7275H79.1819V54.8184H85.2728V48.7275Z" fill="white"/>
<path d="M91.3636 48.7275H85.2727V54.8184H91.3636V48.7275Z" fill="white"/>
<path d="M97.4543 48.7275H91.3634V54.8184H97.4543V48.7275Z" fill="white"/>
<path d="M121.818 48.7275H115.727V54.8184H121.818V48.7275Z" fill="white"/>
<path d="M134 48.7275H127.909V54.8184H134V48.7275Z" fill="white"/>
<path d="M146.182 48.7275H140.091V54.8184H146.182V48.7275Z" fill="white"/>
<path d="M152.273 48.7275H146.182V54.8184H152.273V48.7275Z" fill="white"/>
<path d="M158.363 48.7275H152.272V54.8184H158.363V48.7275Z" fill="white"/>
<path d="M170.545 48.7275H164.454V54.8184H170.545V48.7275Z" fill="white"/>
<path d="M12.1817 54.8184H6.09082V60.9093H12.1817V54.8184Z" fill="white"/>
<path d="M18.2728 54.8184H12.1819V60.9093H18.2728V54.8184Z" fill="white"/>
<path d="M24.3636 54.8184H18.2727V60.9093H24.3636V54.8184Z" fill="white"/>
<path d="M30.4544 54.8184H24.3635V60.9093H30.4544V54.8184Z" fill="white"/>
<path d="M60.909 54.8184H54.8181V60.9093H60.909V54.8184Z" fill="white"/>
<path d="M67.0001 54.8184H60.9092V60.9093H67.0001V54.8184Z" fill="white"/>
<path d="M73.0909 54.8184H67V60.9093H73.0909V54.8184Z" fill="white"/>
<path d="M79.1817 54.8184H73.0908V60.9093H79.1817V54.8184Z" fill="white"/>
<path d="M115.727 54.8184H109.636V60.9093H115.727V54.8184Z" fill="white"/>
<path d="M152.273 54.8184H146.182V60.9093H152.273V54.8184Z" fill="white"/>
<path d="M158.363 54.8184H152.272V60.9093H158.363V54.8184Z" fill="white"/>
<path d="M164.455 54.8184H158.364V60.9093H164.455V54.8184Z" fill="white"/>
<path d="M170.545 54.8184H164.454V60.9093H170.545V54.8184Z" fill="white"/>
<path d="M201 54.8184H194.909V60.9093H201V54.8184Z" fill="white"/>
<path d="M12.1817 60.9094H6.09082V67.0003H12.1817V60.9094Z" fill="white"/>
<path d="M18.2728 60.9094H12.1819V67.0003H18.2728V60.9094Z" fill="white"/>
<path d="M30.4544 60.9094H24.3635V67.0003H30.4544V60.9094Z" fill="white"/>
<path d="M42.6363 60.9094H36.5454V67.0003H42.6363V60.9094Z" fill="white"/>
<path d="M54.8182 60.9094H48.7273V67.0003H54.8182V60.9094Z" fill="white"/>
<path d="M79.1817 60.9094H73.0908V67.0003H79.1817V60.9094Z" fill="white"/>
<path d="M103.545 60.9094H97.4546V67.0003H103.545V60.9094Z" fill="white"/>
<path d="M109.636 60.9094H103.545V67.0003H109.636V60.9094Z" fill="white"/>
<path d="M121.818 60.9094H115.727V67.0003H121.818V60.9094Z" fill="white"/>
<path d="M134 60.9094H127.909V67.0003H134V60.9094Z" fill="white"/>
<path d="M140.091 60.9094H134V67.0003H140.091V60.9094Z" fill="white"/>
<path d="M170.545 60.9094H164.454V67.0003H170.545V60.9094Z" fill="white"/>
<path d="M176.636 60.9094H170.545V67.0003H176.636V60.9094Z" fill="white"/>
<path d="M188.818 60.9094H182.727V67.0003H188.818V60.9094Z" fill="white"/>
<path d="M201 60.9094H194.909V67.0003H201V60.9094Z" fill="white"/>
<path d="M6.09091 67.0002H0V73.0912H6.09091V67.0002Z" fill="white"/>
<path d="M18.2728 67.0002H12.1819V73.0912H18.2728V67.0002Z" fill="white"/>
<path d="M24.3636 67.0002H18.2727V73.0912H24.3636V67.0002Z" fill="white"/>
<path d="M36.5455 67.0002H30.4546V73.0912H36.5455V67.0002Z" fill="white"/>
<path d="M91.3636 67.0002H85.2727V73.0912H91.3636V67.0002Z" fill="white"/>
<path d="M97.4543 67.0002H91.3634V73.0912H97.4543V67.0002Z" fill="white"/>
<path d="M109.636 67.0002H103.545V73.0912H109.636V67.0002Z" fill="white"/>
<path d="M121.818 67.0002H115.727V73.0912H121.818V67.0002Z" fill="white"/>
<path d="M152.273 67.0002H146.182V73.0912H152.273V67.0002Z" fill="white"/>
<path d="M164.455 67.0002H158.364V73.0912H164.455V67.0002Z" fill="white"/>
<path d="M176.636 67.0002H170.545V73.0912H176.636V67.0002Z" fill="white"/>
<path d="M182.727 67.0002H176.636V73.0912H182.727V67.0002Z" fill="white"/>
<path d="M36.5455 73.0913H30.4546V79.1822H36.5455V73.0913Z" fill="white"/>
<path d="M42.6363 73.0913H36.5454V79.1822H42.6363V73.0913Z" fill="white"/>
<path d="M48.727 73.0913H42.6361V79.1822H48.727V73.0913Z" fill="white"/>
<path d="M54.8182 73.0913H48.7273V79.1822H54.8182V73.0913Z" fill="white"/>
<path d="M73.0909 73.0913H67V79.1822H73.0909V73.0913Z" fill="white"/>
<path d="M79.1817 73.0913H73.0908V79.1822H79.1817V73.0913Z" fill="white"/>
<path d="M121.818 73.0913H115.727V79.1822H121.818V73.0913Z" fill="white"/>
<path d="M158.363 73.0913H152.272V79.1822H158.363V73.0913Z" fill="white"/>
<path d="M164.455 73.0913H158.364V79.1822H164.455V73.0913Z" fill="white"/>
<path d="M182.727 73.0913H176.636V79.1822H182.727V73.0913Z" fill="white"/>
<path d="M201 73.0913H194.909V79.1822H201V73.0913Z" fill="white"/>
<path d="M12.1817 79.1816H6.09082V85.2725H12.1817V79.1816Z" fill="white"/>
<path d="M24.3636 79.1816H18.2727V85.2725H24.3636V79.1816Z" fill="white"/>
<path d="M54.8182 79.1816H48.7273V85.2725H54.8182V79.1816Z" fill="white"/>
<path d="M60.909 79.1816H54.8181V85.2725H60.909V79.1816Z" fill="white"/>
<path d="M67.0001 79.1816H60.9092V85.2725H67.0001V79.1816Z" fill="white"/>
<path d="M73.0909 79.1816H67V85.2725H73.0909V79.1816Z" fill="white"/>
<path d="M85.2728 79.1816H79.1819V85.2725H85.2728V79.1816Z" fill="white"/>
<path d="M97.4543 79.1816H91.3634V85.2725H97.4543V79.1816Z" fill="white"/>
<path d="M103.545 79.1816H97.4546V85.2725H103.545V79.1816Z" fill="white"/>
<path d="M109.636 79.1816H103.545V85.2725H109.636V79.1816Z" fill="white"/>
<path d="M140.091 79.1816H134V85.2725H140.091V79.1816Z" fill="white"/>
<path d="M152.273 79.1816H146.182V85.2725H152.273V79.1816Z" fill="white"/>
<path d="M164.455 79.1816H158.364V85.2725H164.455V79.1816Z" fill="white"/>
<path d="M170.545 79.1816H164.454V85.2725H170.545V79.1816Z" fill="white"/>
<path d="M176.636 79.1816H170.545V85.2725H176.636V79.1816Z" fill="white"/>
<path d="M182.727 79.1816H176.636V85.2725H182.727V79.1816Z" fill="white"/>
<path d="M194.909 79.1816H188.818V85.2725H194.909V79.1816Z" fill="white"/>
<path d="M201 79.1816H194.909V85.2725H201V79.1816Z" fill="white"/>
<path d="M24.3636 85.2727H18.2727V91.3636H24.3636V85.2727Z" fill="white"/>
<path d="M30.4544 85.2727H24.3635V91.3636H30.4544V85.2727Z" fill="white"/>
<path d="M36.5455 85.2727H30.4546V91.3636H36.5455V85.2727Z" fill="white"/>
<path d="M42.6363 85.2727H36.5454V91.3636H42.6363V85.2727Z" fill="white"/>
<path d="M48.727 85.2727H42.6361V91.3636H48.727V85.2727Z" fill="white"/>
<path d="M54.8182 85.2727H48.7273V91.3636H54.8182V85.2727Z" fill="white"/>
<path d="M73.0909 85.2727H67V91.3636H73.0909V85.2727Z" fill="white"/>
<path d="M115.727 85.2727H109.636V91.3636H115.727V85.2727Z" fill="white"/>
<path d="M127.909 85.2727H121.818V91.3636H127.909V85.2727Z" fill="white"/>
<path d="M146.182 85.2727H140.091V91.3636H146.182V85.2727Z" fill="white"/>
<path d="M158.363 85.2727H152.272V91.3636H158.363V85.2727Z" fill="white"/>
<path d="M164.455 85.2727H158.364V91.3636H164.455V85.2727Z" fill="white"/>
<path d="M170.545 85.2727H164.454V91.3636H170.545V85.2727Z" fill="white"/>
<path d="M182.727 85.2727H176.636V91.3636H182.727V85.2727Z" fill="white"/>
<path d="M194.909 85.2727H188.818V91.3636H194.909V85.2727Z" fill="white"/>
<path d="M6.09091 91.3635H0V97.4544H6.09091V91.3635Z" fill="white"/>
<path d="M12.1817 91.3635H6.09082V97.4544H12.1817V91.3635Z" fill="white"/>
<path d="M24.3636 91.3635H18.2727V97.4544H24.3636V91.3635Z" fill="white"/>
<path d="M54.8182 91.3635H48.7273V97.4544H54.8182V91.3635Z" fill="white"/>
<path d="M97.4543 91.3635H91.3634V97.4544H97.4543V91.3635Z" fill="white"/>
<path d="M109.636 91.3635H103.545V97.4544H109.636V91.3635Z" fill="white"/>
<path d="M121.818 91.3635H115.727V97.4544H121.818V91.3635Z" fill="white"/>
<path d="M134 91.3635H127.909V97.4544H134V91.3635Z" fill="white"/>
<path d="M146.182 91.3635H140.091V97.4544H146.182V91.3635Z" fill="white"/>
<path d="M152.273 91.3635H146.182V97.4544H152.273V91.3635Z" fill="white"/>
<path d="M164.455 91.3635H158.364V97.4544H164.455V91.3635Z" fill="white"/>
<path d="M176.636 91.3635H170.545V97.4544H176.636V91.3635Z" fill="white"/>
<path d="M194.909 91.3635H188.818V97.4544H194.909V91.3635Z" fill="white"/>
<path d="M6.09091 97.4546H0V103.545H6.09091V97.4546Z" fill="white"/>
<path d="M12.1817 97.4546H6.09082V103.545H12.1817V97.4546Z" fill="white"/>
<path d="M18.2728 97.4546H12.1819V103.545H18.2728V97.4546Z" fill="white"/>
<path d="M42.6363 97.4546H36.5454V103.545H42.6363V97.4546Z" fill="white"/>
<path d="M48.727 97.4546H42.6361V103.545H48.727V97.4546Z" fill="white"/>
<path d="M60.909 97.4546H54.8181V103.545H60.909V97.4546Z" fill="white"/>
<path d="M67.0001 97.4546H60.9092V103.545H67.0001V97.4546Z" fill="white"/>
<path d="M79.1817 97.4546H73.0908V103.545H79.1817V97.4546Z" fill="white"/>
<path d="M91.3636 97.4546H85.2727V103.545H91.3636V97.4546Z" fill="white"/>
<path d="M103.545 97.4546H97.4546V103.545H103.545V97.4546Z" fill="white"/>
<path d="M109.636 97.4546H103.545V103.545H109.636V97.4546Z" fill="white"/>
<path d="M121.818 97.4546H115.727V103.545H121.818V97.4546Z" fill="white"/>
<path d="M127.909 97.4546H121.818V103.545H127.909V97.4546Z" fill="white"/>
<path d="M134 97.4546H127.909V103.545H134V97.4546Z" fill="white"/>
<path d="M140.091 97.4546H134V103.545H140.091V97.4546Z" fill="white"/>
<path d="M152.273 97.4546H146.182V103.545H152.273V97.4546Z" fill="white"/>
<path d="M164.455 97.4546H158.364V103.545H164.455V97.4546Z" fill="white"/>
<path d="M176.636 97.4546H170.545V103.545H176.636V97.4546Z" fill="white"/>
<path d="M182.727 97.4546H176.636V103.545H182.727V97.4546Z" fill="white"/>
<path d="M194.909 97.4546H188.818V103.545H194.909V97.4546Z" fill="white"/>
<path d="M6.09091 103.545H0V109.636H6.09091V103.545Z" fill="white"/>
<path d="M48.727 103.545H42.6361V109.636H48.727V103.545Z" fill="white"/>
<path d="M73.0909 103.545H67V109.636H73.0909V103.545Z" fill="white"/>
<path d="M79.1817 103.545H73.0908V109.636H79.1817V103.545Z" fill="white"/>
<path d="M85.2728 103.545H79.1819V109.636H85.2728V103.545Z" fill="white"/>
<path d="M115.727 103.545H109.636V109.636H115.727V103.545Z" fill="white"/>
<path d="M134 103.545H127.909V109.636H134V103.545Z" fill="white"/>
<path d="M140.091 103.545H134V109.636H140.091V103.545Z" fill="white"/>
<path d="M146.182 103.545H140.091V109.636H146.182V103.545Z" fill="white"/>
<path d="M152.273 103.545H146.182V109.636H152.273V103.545Z" fill="white"/>
<path d="M158.363 103.545H152.272V109.636H158.363V103.545Z" fill="white"/>
<path d="M170.545 103.545H164.454V109.636H170.545V103.545Z" fill="white"/>
<path d="M182.727 103.545H176.636V109.636H182.727V103.545Z" fill="white"/>
<path d="M194.909 103.545H188.818V109.636H194.909V103.545Z" fill="white"/>
<path d="M18.2728 109.636H12.1819V115.727H18.2728V109.636Z" fill="white"/>
<path d="M30.4544 109.636H24.3635V115.727H30.4544V109.636Z" fill="white"/>
<path d="M42.6363 109.636H36.5454V115.727H42.6363V109.636Z" fill="white"/>
<path d="M48.727 109.636H42.6361V115.727H48.727V109.636Z" fill="white"/>
<path d="M60.909 109.636H54.8181V115.727H60.909V109.636Z" fill="white"/>
<path d="M67.0001 109.636H60.9092V115.727H67.0001V109.636Z" fill="white"/>
<path d="M85.2728 109.636H79.1819V115.727H85.2728V109.636Z" fill="white"/>
<path d="M115.727 109.636H109.636V115.727H115.727V109.636Z" fill="white"/>
<path d="M140.091 109.636H134V115.727H140.091V109.636Z" fill="white"/>
<path d="M152.273 109.636H146.182V115.727H152.273V109.636Z" fill="white"/>
<path d="M188.818 109.636H182.727V115.727H188.818V109.636Z" fill="white"/>
<path d="M194.909 109.636H188.818V115.727H194.909V109.636Z" fill="white"/>
<path d="M201 109.636H194.909V115.727H201V109.636Z" fill="white"/>
<path d="M6.09091 115.727H0V121.818H6.09091V115.727Z" fill="white"/>
<path d="M24.3636 115.727H18.2727V121.818H24.3636V115.727Z" fill="white"/>
<path d="M36.5455 115.727H30.4546V121.818H36.5455V115.727Z" fill="white"/>
<path d="M54.8182 115.727H48.7273V121.818H54.8182V115.727Z" fill="white"/>
<path d="M109.636 115.727H103.545V121.818H109.636V115.727Z" fill="white"/>
<path d="M115.727 115.727H109.636V121.818H115.727V115.727Z" fill="white"/>
<path d="M121.818 115.727H115.727V121.818H121.818V115.727Z" fill="white"/>
<path d="M127.909 115.727H121.818V121.818H127.909V115.727Z" fill="white"/>
<path d="M134 115.727H127.909V121.818H134V115.727Z" fill="white"/>
<path d="M146.182 115.727H140.091V121.818H146.182V115.727Z" fill="white"/>
<path d="M152.273 115.727H146.182V121.818H152.273V115.727Z" fill="white"/>
<path d="M158.363 115.727H152.272V121.818H158.363V115.727Z" fill="white"/>
<path d="M170.545 115.727H164.454V121.818H170.545V115.727Z" fill="white"/>
<path d="M194.909 115.727H188.818V121.818H194.909V115.727Z" fill="white"/>
<path d="M201 115.727H194.909V121.818H201V115.727Z" fill="white"/>
<path d="M6.09091 121.818H0V127.909H6.09091V121.818Z" fill="white"/>
<path d="M12.1817 121.818H6.09082V127.909H12.1817V121.818Z" fill="white"/>
<path d="M24.3636 121.818H18.2727V127.909H24.3636V121.818Z" fill="white"/>
<path d="M36.5455 121.818H30.4546V127.909H36.5455V121.818Z" fill="white"/>
<path d="M42.6363 121.818H36.5454V127.909H42.6363V121.818Z" fill="white"/>
<path d="M67.0001 121.818H60.9092V127.909H67.0001V121.818Z" fill="white"/>
<path d="M73.0909 121.818H67V127.909H73.0909V121.818Z" fill="white"/>
<path d="M79.1817 121.818H73.0908V127.909H79.1817V121.818Z" fill="white"/>
<path d="M85.2728 121.818H79.1819V127.909H85.2728V121.818Z" fill="white"/>
<path d="M91.3636 121.818H85.2727V127.909H91.3636V121.818Z" fill="white"/>
<path d="M97.4543 121.818H91.3634V127.909H97.4543V121.818Z" fill="white"/>
<path d="M103.545 121.818H97.4546V127.909H103.545V121.818Z" fill="white"/>
<path d="M109.636 121.818H103.545V127.909H109.636V121.818Z" fill="white"/>
<path d="M115.727 121.818H109.636V127.909H115.727V121.818Z" fill="white"/>
<path d="M121.818 121.818H115.727V127.909H121.818V121.818Z" fill="white"/>
<path d="M140.091 121.818H134V127.909H140.091V121.818Z" fill="white"/>
<path d="M152.273 121.818H146.182V127.909H152.273V121.818Z" fill="white"/>
<path d="M158.363 121.818H152.272V127.909H158.363V121.818Z" fill="white"/>
<path d="M194.909 121.818H188.818V127.909H194.909V121.818Z" fill="white"/>
<path d="M201 121.818H194.909V127.909H201V121.818Z" fill="white"/>
<path d="M12.1817 127.909H6.09082V134H12.1817V127.909Z" fill="white"/>
<path d="M18.2728 127.909H12.1819V134H18.2728V127.909Z" fill="white"/>
<path d="M24.3636 127.909H18.2727V134H24.3636V127.909Z" fill="white"/>
<path d="M48.727 127.909H42.6361V134H48.727V127.909Z" fill="white"/>
<path d="M54.8182 127.909H48.7273V134H54.8182V127.909Z" fill="white"/>
<path d="M79.1817 127.909H73.0908V134H79.1817V127.909Z" fill="white"/>
<path d="M85.2728 127.909H79.1819V134H85.2728V127.909Z" fill="white"/>
<path d="M91.3636 127.909H85.2727V134H91.3636V127.909Z" fill="white"/>
<path d="M97.4543 127.909H91.3634V134H97.4543V127.909Z" fill="white"/>
<path d="M103.545 127.909H97.4546V134H103.545V127.909Z" fill="white"/>
<path d="M115.727 127.909H109.636V134H115.727V127.909Z" fill="white"/>
<path d="M121.818 127.909H115.727V134H121.818V127.909Z" fill="white"/>
<path d="M127.909 127.909H121.818V134H127.909V127.909Z" fill="white"/>
<path d="M140.091 127.909H134V134H140.091V127.909Z" fill="white"/>
<path d="M152.273 127.909H146.182V134H152.273V127.909Z" fill="white"/>
<path d="M158.363 127.909H152.272V134H158.363V127.909Z" fill="white"/>
<path d="M164.455 127.909H158.364V134H164.455V127.909Z" fill="white"/>
<path d="M182.727 127.909H176.636V134H182.727V127.909Z" fill="white"/>
<path d="M188.818 127.909H182.727V134H188.818V127.909Z" fill="white"/>
<path d="M194.909 127.909H188.818V134H194.909V127.909Z" fill="white"/>
<path d="M201 127.909H194.909V134H201V127.909Z" fill="white"/>
<path d="M6.09091 134H0V140.091H6.09091V134Z" fill="white"/>
<path d="M12.1817 134H6.09082V140.091H12.1817V134Z" fill="white"/>
<path d="M24.3636 134H18.2727V140.091H24.3636V134Z" fill="white"/>
<path d="M30.4544 134H24.3635V140.091H30.4544V134Z" fill="white"/>
<path d="M42.6363 134H36.5454V140.091H42.6363V134Z" fill="white"/>
<path d="M54.8182 134H48.7273V140.091H54.8182V134Z" fill="white"/>
<path d="M60.909 134H54.8181V140.091H60.909V134Z" fill="white"/>
<path d="M67.0001 134H60.9092V140.091H67.0001V134Z" fill="white"/>
<path d="M91.3636 134H85.2727V140.091H91.3636V134Z" fill="white"/>
<path d="M97.4543 134H91.3634V140.091H97.4543V134Z" fill="white"/>
<path d="M115.727 134H109.636V140.091H115.727V134Z" fill="white"/>
<path d="M127.909 134H121.818V140.091H127.909V134Z" fill="white"/>
<path d="M152.273 134H146.182V140.091H152.273V134Z" fill="white"/>
<path d="M158.363 134H152.272V140.091H158.363V134Z" fill="white"/>
<path d="M164.455 134H158.364V140.091H164.455V134Z" fill="white"/>
<path d="M182.727 134H176.636V140.091H182.727V134Z" fill="white"/>
<path d="M188.818 134H182.727V140.091H188.818V134Z" fill="white"/>
<path d="M201 134H194.909V140.091H201V134Z" fill="white"/>
<path d="M12.1817 140.091H6.09082V146.182H12.1817V140.091Z" fill="white"/>
<path d="M18.2728 140.091H12.1819V146.182H18.2728V140.091Z" fill="white"/>
<path d="M24.3636 140.091H18.2727V146.182H24.3636V140.091Z" fill="white"/>
<path d="M36.5455 140.091H30.4546V146.182H36.5455V140.091Z" fill="white"/>
<path d="M67.0001 140.091H60.9092V146.182H67.0001V140.091Z" fill="white"/>
<path d="M73.0909 140.091H67V146.182H73.0909V140.091Z" fill="white"/>
<path d="M79.1817 140.091H73.0908V146.182H79.1817V140.091Z" fill="white"/>
<path d="M85.2728 140.091H79.1819V146.182H85.2728V140.091Z" fill="white"/>
<path d="M91.3636 140.091H85.2727V146.182H91.3636V140.091Z" fill="white"/>
<path d="M103.545 140.091H97.4546V146.182H103.545V140.091Z" fill="white"/>
<path d="M115.727 140.091H109.636V146.182H115.727V140.091Z" fill="white"/>
<path d="M134 140.091H127.909V146.182H134V140.091Z" fill="white"/>
<path d="M140.091 140.091H134V146.182H140.091V140.091Z" fill="white"/>
<path d="M146.182 140.091H140.091V146.182H146.182V140.091Z" fill="white"/>
<path d="M152.273 140.091H146.182V146.182H152.273V140.091Z" fill="white"/>
<path d="M182.727 140.091H176.636V146.182H182.727V140.091Z" fill="white"/>
<path d="M201 140.091H194.909V146.182H201V140.091Z" fill="white"/>
<path d="M6.09091 146.182H0V152.273H6.09091V146.182Z" fill="white"/>
<path d="M18.2728 146.182H12.1819V152.273H18.2728V146.182Z" fill="white"/>
<path d="M42.6363 146.182H36.5454V152.273H42.6363V146.182Z" fill="white"/>
<path d="M60.909 146.182H54.8181V152.273H60.909V146.182Z" fill="white"/>
<path d="M79.1817 146.182H73.0908V152.273H79.1817V146.182Z" fill="white"/>
<path d="M85.2728 146.182H79.1819V152.273H85.2728V146.182Z" fill="white"/>
<path d="M97.4543 146.182H91.3634V152.273H97.4543V146.182Z" fill="white"/>
<path d="M103.545 146.182H97.4546V152.273H103.545V146.182Z" fill="white"/>
<path d="M109.636 146.182H103.545V152.273H109.636V146.182Z" fill="white"/>
<path d="M121.818 146.182H115.727V152.273H121.818V146.182Z" fill="white"/>
<path d="M127.909 146.182H121.818V152.273H127.909V146.182Z" fill="white"/>
<path d="M134 146.182H127.909V152.273H134V146.182Z" fill="white"/>
<path d="M140.091 146.182H134V152.273H140.091V146.182Z" fill="white"/>
<path d="M152.273 146.182H146.182V152.273H152.273V146.182Z" fill="white"/>
<path d="M158.363 146.182H152.272V152.273H158.363V146.182Z" fill="white"/>
<path d="M164.455 146.182H158.364V152.273H164.455V146.182Z" fill="white"/>
<path d="M170.545 146.182H164.454V152.273H170.545V146.182Z" fill="white"/>
<path d="M176.636 146.182H170.545V152.273H176.636V146.182Z" fill="white"/>
<path d="M182.727 146.182H176.636V152.273H182.727V146.182Z" fill="white"/>
<path d="M194.909 146.182H188.818V152.273H194.909V146.182Z" fill="white"/>
<path d="M54.8182 152.273H48.7273V158.364H54.8182V152.273Z" fill="white"/>
<path d="M60.909 152.273H54.8181V158.364H60.909V152.273Z" fill="white"/>
<path d="M73.0909 152.273H67V158.364H73.0909V152.273Z" fill="white"/>
<path d="M85.2728 152.273H79.1819V158.364H85.2728V152.273Z" fill="white"/>
<path d="M115.727 152.273H109.636V158.364H115.727V152.273Z" fill="white"/>
<path d="M121.818 152.273H115.727V158.364H121.818V152.273Z" fill="white"/>
<path d="M127.909 152.273H121.818V158.364H127.909V152.273Z" fill="white"/>
<path d="M140.091 152.273H134V158.364H140.091V152.273Z" fill="white"/>
<path d="M146.182 152.273H140.091V158.364H146.182V152.273Z" fill="white"/>
<path d="M152.273 152.273H146.182V158.364H152.273V152.273Z" fill="white"/>
<path d="M176.636 152.273H170.545V158.364H176.636V152.273Z" fill="white"/>
<path d="M182.727 152.273H176.636V158.364H182.727V152.273Z" fill="white"/>
<path d="M201 152.273H194.909V158.364H201V152.273Z" fill="white"/>
<path d="M67.0001 158.364H60.9092V164.455H67.0001V158.364Z" fill="white"/>
<path d="M73.0909 158.364H67V164.455H73.0909V158.364Z" fill="white"/>
<path d="M79.1817 158.364H73.0908V164.455H79.1817V158.364Z" fill="white"/>
<path d="M85.2728 158.364H79.1819V164.455H85.2728V158.364Z" fill="white"/>
<path d="M103.545 158.364H97.4546V164.455H103.545V158.364Z" fill="white"/>
<path d="M127.909 158.364H121.818V164.455H127.909V158.364Z" fill="white"/>
<path d="M134 158.364H127.909V164.455H134V158.364Z" fill="white"/>
<path d="M152.273 158.364H146.182V164.455H152.273V158.364Z" fill="white"/>
<path d="M164.455 158.364H158.364V164.455H164.455V158.364Z" fill="white"/>
<path d="M176.636 158.364H170.545V164.455H176.636V158.364Z" fill="white"/>
<path d="M182.727 158.364H176.636V164.455H182.727V158.364Z" fill="white"/>
<path d="M188.818 158.364H182.727V164.455H188.818V158.364Z" fill="white"/>
<path d="M54.8182 164.455H48.7273V170.546H54.8182V164.455Z" fill="white"/>
<path d="M60.909 164.455H54.8181V170.546H60.909V164.455Z" fill="white"/>
<path d="M85.2728 164.455H79.1819V170.546H85.2728V164.455Z" fill="white"/>
<path d="M91.3636 164.455H85.2727V170.546H91.3636V164.455Z" fill="white"/>
<path d="M97.4543 164.455H91.3634V170.546H97.4543V164.455Z" fill="white"/>
<path d="M103.545 164.455H97.4546V170.546H103.545V164.455Z" fill="white"/>
<path d="M152.273 164.455H146.182V170.546H152.273V164.455Z" fill="white"/>
<path d="M176.636 164.455H170.545V170.546H176.636V164.455Z" fill="white"/>
<path d="M194.909 164.455H188.818V170.546H194.909V164.455Z" fill="white"/>
<path d="M201 164.455H194.909V170.546H201V164.455Z" fill="white"/>
<path d="M67.0001 170.546H60.9092V176.637H67.0001V170.546Z" fill="white"/>
<path d="M73.0909 170.546H67V176.637H73.0909V170.546Z" fill="white"/>
<path d="M103.545 170.546H97.4546V176.637H103.545V170.546Z" fill="white"/>
<path d="M121.818 170.546H115.727V176.637H121.818V170.546Z" fill="white"/>
<path d="M140.091 170.546H134V176.637H140.091V170.546Z" fill="white"/>
<path d="M152.273 170.546H146.182V176.637H152.273V170.546Z" fill="white"/>
<path d="M158.363 170.546H152.272V176.637H158.363V170.546Z" fill="white"/>
<path d="M164.455 170.546H158.364V176.637H164.455V170.546Z" fill="white"/>
<path d="M170.545 170.546H164.454V176.637H170.545V170.546Z" fill="white"/>
<path d="M176.636 170.546H170.545V176.637H176.636V170.546Z" fill="white"/>
<path d="M182.727 170.546H176.636V176.637H182.727V170.546Z" fill="white"/>
<path d="M201 170.546H194.909V176.637H201V170.546Z" fill="white"/>
<path d="M54.8182 176.636H48.7273V182.727H54.8182V176.636Z" fill="white"/>
<path d="M60.909 176.636H54.8181V182.727H60.909V176.636Z" fill="white"/>
<path d="M73.0909 176.636H67V182.727H73.0909V176.636Z" fill="white"/>
<path d="M79.1817 176.636H73.0908V182.727H79.1817V176.636Z" fill="white"/>
<path d="M85.2728 176.636H79.1819V182.727H85.2728V176.636Z" fill="white"/>
<path d="M91.3636 176.636H85.2727V182.727H91.3636V176.636Z" fill="white"/>
<path d="M97.4543 176.636H91.3634V182.727H97.4543V176.636Z" fill="white"/>
<path d="M121.818 176.636H115.727V182.727H121.818V176.636Z" fill="white"/>
<path d="M127.909 176.636H121.818V182.727H127.909V176.636Z" fill="white"/>
<path d="M146.182 176.636H140.091V182.727H146.182V176.636Z" fill="white"/>
<path d="M164.455 176.636H158.364V182.727H164.455V176.636Z" fill="white"/>
<path d="M176.636 176.636H170.545V182.727H176.636V176.636Z" fill="white"/>
<path d="M194.909 176.636H188.818V182.727H194.909V176.636Z" fill="white"/>
<path d="M67.0001 182.727H60.9092V188.818H67.0001V182.727Z" fill="white"/>
<path d="M73.0909 182.727H67V188.818H73.0909V182.727Z" fill="white"/>
<path d="M79.1817 182.727H73.0908V188.818H79.1817V182.727Z" fill="white"/>
<path d="M115.727 182.727H109.636V188.818H115.727V182.727Z" fill="white"/>
<path d="M134 182.727H127.909V188.818H134V182.727Z" fill="white"/>
<path d="M152.273 182.727H146.182V188.818H152.273V182.727Z" fill="white"/>
<path d="M176.636 182.727H170.545V188.818H176.636V182.727Z" fill="white"/>
<path d="M188.818 182.727H182.727V188.818H188.818V182.727Z" fill="white"/>
<path d="M201 182.727H194.909V188.818H201V182.727Z" fill="white"/>
<path d="M60.909 188.818H54.8181V194.909H60.909V188.818Z" fill="white"/>
<path d="M97.4543 188.818H91.3634V194.909H97.4543V188.818Z" fill="white"/>
<path d="M103.545 188.818H97.4546V194.909H103.545V188.818Z" fill="white"/>
<path d="M109.636 188.818H103.545V194.909H109.636V188.818Z" fill="white"/>
<path d="M134 188.818H127.909V194.909H134V188.818Z" fill="white"/>
<path d="M140.091 188.818H134V194.909H140.091V188.818Z" fill="white"/>
<path d="M152.273 188.818H146.182V194.909H152.273V188.818Z" fill="white"/>
<path d="M158.363 188.818H152.272V194.909H158.363V188.818Z" fill="white"/>
<path d="M164.455 188.818H158.364V194.909H164.455V188.818Z" fill="white"/>
<path d="M54.8182 194.909H48.7273V201H54.8182V194.909Z" fill="white"/>
<path d="M60.909 194.909H54.8181V201H60.909V194.909Z" fill="white"/>
<path d="M134 194.909H127.909V201H134V194.909Z" fill="white"/>
<path d="M152.273 194.909H146.182V201H152.273V194.909Z" fill="white"/>
<path d="M164.455 194.909H158.364V201H164.455V194.909Z" fill="white"/>
<path d="M176.636 194.909H170.545V201H176.636V194.909Z" fill="white"/>
<path d="M194.909 194.909H188.818V201H194.909V194.909Z" fill="white"/>
<path d="M36.2409 0H6.39545H0V6.39545V36.2409V42.6364H6.39545H36.2409H42.6364V36.2409V6.39545V0H36.2409ZM36.2409 36.2409H6.39545V6.39545H36.2409V36.2409Z" fill="white"/>
<path d="M194.605 0H164.759H158.364V6.39545V36.2409V42.6364H164.759H194.605H201V36.2409V6.39545V0H194.605ZM194.605 36.2409H164.759V6.39545H194.605V36.2409Z" fill="white"/>
<path d="M36.2409 158.364H6.39545H0V164.759V194.605V201H6.39545H36.2409H42.6364V194.605V164.759V158.364H36.2409ZM36.2409 194.605H6.39545V164.759H36.2409V194.605Z" fill="white"/>
<path d="M30.4546 12.1819H12.1819V30.4546H30.4546V12.1819Z" fill="white"/>
<path d="M188.818 12.1819H170.545V30.4546H188.818V12.1819Z" fill="white"/>
<path d="M30.4546 170.546H12.1819V188.818H30.4546V170.546Z" fill="white"/>
</svg>
