<svg width="115" height="115" viewBox="0 0 115 115" fill="none" xmlns="http://www.w3.org/2000/svg">
<path d="M38.3335 6.10352e-05H34.8486V3.48491H38.3335V6.10352e-05Z" fill="white"/>
<path d="M45.303 6.10352e-05H41.8181V3.48491H45.303V6.10352e-05Z" fill="white"/>
<path d="M55.7576 6.10352e-05H52.2727V3.48491H55.7576V6.10352e-05Z" fill="white"/>
<path d="M59.2424 6.10352e-05H55.7576V3.48491H59.2424V6.10352e-05Z" fill="white"/>
<path d="M66.2121 6.10352e-05H62.7273V3.48491H66.2121V6.10352e-05Z" fill="white"/>
<path d="M69.697 6.10352e-05H66.2122V3.48491H69.697V6.10352e-05Z" fill="white"/>
<path d="M80.1514 6.10352e-05H76.6665V3.48491H80.1514V6.10352e-05Z" fill="white"/>
<path d="M83.6362 6.10352e-05H80.1514V3.48491H83.6362V6.10352e-05Z" fill="white"/>
<path d="M34.8484 3.48491H31.3635V6.96976H34.8484V3.48491Z" fill="white"/>
<path d="M38.3335 3.48491H34.8486V6.96976H38.3335V3.48491Z" fill="white"/>
<path d="M41.8181 3.48491H38.3333V6.96976H41.8181V3.48491Z" fill="white"/>
<path d="M45.303 3.48491H41.8181V6.96976H45.303V3.48491Z" fill="white"/>
<path d="M55.7576 3.48491H52.2727V6.96976H55.7576V3.48491Z" fill="white"/>
<path d="M59.2424 3.48491H55.7576V6.96976H59.2424V3.48491Z" fill="white"/>
<path d="M62.7273 3.48491H59.2424V6.96976H62.7273V3.48491Z" fill="white"/>
<path d="M73.1816 3.48491H69.6968V6.96976H73.1816V3.48491Z" fill="white"/>
<path d="M76.6667 3.48491H73.1819V6.96976H76.6667V3.48491Z" fill="white"/>
<path d="M83.6362 3.48491H80.1514V6.96976H83.6362V3.48491Z" fill="white"/>
<path d="M34.8484 6.96976H31.3635V10.4546H34.8484V6.96976Z" fill="white"/>
<path d="M41.8181 6.96976H38.3333V10.4546H41.8181V6.96976Z" fill="white"/>
<path d="M45.303 6.96976H41.8181V10.4546H45.303V6.96976Z" fill="white"/>
<path d="M52.2727 6.96976H48.7878V10.4546H52.2727V6.96976Z" fill="white"/>
<path d="M59.2424 6.96976H55.7576V10.4546H59.2424V6.96976Z" fill="white"/>
<path d="M62.7273 6.96976H59.2424V10.4546H62.7273V6.96976Z" fill="white"/>
<path d="M69.697 6.96976H66.2122V10.4546H69.697V6.96976Z" fill="white"/>
<path d="M73.1816 6.96976H69.6968V10.4546H73.1816V6.96976Z" fill="white"/>
<path d="M80.1514 6.96976H76.6665V10.4546H80.1514V6.96976Z" fill="white"/>
<path d="M34.8484 10.4546H31.3635V13.9395H34.8484V10.4546Z" fill="white"/>
<path d="M38.3335 10.4546H34.8486V13.9395H38.3335V10.4546Z" fill="white"/>
<path d="M48.7878 10.4546H45.303V13.9395H48.7878V10.4546Z" fill="white"/>
<path d="M55.7576 10.4546H52.2727V13.9395H55.7576V10.4546Z" fill="white"/>
<path d="M62.7273 10.4546H59.2424V13.9395H62.7273V10.4546Z" fill="white"/>
<path d="M76.6667 10.4546H73.1819V13.9395H76.6667V10.4546Z" fill="white"/>
<path d="M87.1211 10.4546H83.6362V13.9395H87.1211V10.4546Z" fill="white"/>
<path d="M34.8484 13.9395H31.3635V17.4243H34.8484V13.9395Z" fill="white"/>
<path d="M38.3335 13.9395H34.8486V17.4243H38.3335V13.9395Z" fill="white"/>
<path d="M45.303 13.9395H41.8181V17.4243H45.303V13.9395Z" fill="white"/>
<path d="M48.7878 13.9395H45.303V17.4243H48.7878V13.9395Z" fill="white"/>
<path d="M59.2424 13.9395H55.7576V17.4243H59.2424V13.9395Z" fill="white"/>
<path d="M69.697 13.9395H66.2122V17.4243H69.697V13.9395Z" fill="white"/>
<path d="M83.6362 13.9395H80.1514V17.4243H83.6362V13.9395Z" fill="white"/>
<path d="M31.3635 17.4243H27.8787V20.9092H31.3635V17.4243Z" fill="white"/>
<path d="M34.8484 17.4243H31.3635V20.9092H34.8484V17.4243Z" fill="white"/>
<path d="M41.8181 17.4243H38.3333V20.9092H41.8181V17.4243Z" fill="white"/>
<path d="M48.7878 17.4243H45.303V20.9092H48.7878V17.4243Z" fill="white"/>
<path d="M52.2727 17.4243H48.7878V20.9092H52.2727V17.4243Z" fill="white"/>
<path d="M62.7273 17.4243H59.2424V20.9092H62.7273V17.4243Z" fill="white"/>
<path d="M73.1816 17.4243H69.6968V20.9092H73.1816V17.4243Z" fill="white"/>
<path d="M76.6667 17.4243H73.1819V20.9092H76.6667V17.4243Z" fill="white"/>
<path d="M80.1514 17.4243H76.6665V20.9092H80.1514V17.4243Z" fill="white"/>
<path d="M87.1211 17.4243H83.6362V20.9092H87.1211V17.4243Z" fill="white"/>
<path d="M31.3635 20.9092H27.8787V24.394H31.3635V20.9092Z" fill="white"/>
<path d="M38.3335 20.9092H34.8486V24.394H38.3335V20.9092Z" fill="white"/>
<path d="M45.303 20.9092H41.8181V24.394H45.303V20.9092Z" fill="white"/>
<path d="M52.2727 20.9092H48.7878V24.394H52.2727V20.9092Z" fill="white"/>
<path d="M59.2424 20.9092H55.7576V24.394H59.2424V20.9092Z" fill="white"/>
<path d="M66.2121 20.9092H62.7273V24.394H66.2121V20.9092Z" fill="white"/>
<path d="M73.1816 20.9092H69.6968V24.394H73.1816V20.9092Z" fill="white"/>
<path d="M80.1514 20.9092H76.6665V24.394H80.1514V20.9092Z" fill="white"/>
<path d="M87.1211 20.9092H83.6362V24.394H87.1211V20.9092Z" fill="white"/>
<path d="M34.8484 24.394H31.3635V27.8788H34.8484V24.394Z" fill="white"/>
<path d="M41.8181 24.394H38.3333V27.8788H41.8181V24.394Z" fill="white"/>
<path d="M62.7273 24.394H59.2424V27.8788H62.7273V24.394Z" fill="white"/>
<path d="M66.2121 24.394H62.7273V27.8788H66.2121V24.394Z" fill="white"/>
<path d="M69.697 24.394H66.2122V27.8788H69.697V24.394Z" fill="white"/>
<path d="M73.1816 24.394H69.6968V27.8788H73.1816V24.394Z" fill="white"/>
<path d="M76.6667 24.394H73.1819V27.8788H76.6667V24.394Z" fill="white"/>
<path d="M80.1514 24.394H76.6665V27.8788H80.1514V24.394Z" fill="white"/>
<path d="M3.48485 27.8788H0V31.3637H3.48485V27.8788Z" fill="white"/>
<path d="M13.9394 27.8788H10.4546V31.3637H13.9394V27.8788Z" fill="white"/>
<path d="M20.9092 27.8788H17.4243V31.3637H20.9092V27.8788Z" fill="white"/>
<path d="M24.3938 27.8788H20.9089V31.3637H24.3938V27.8788Z" fill="white"/>
<path d="M31.3635 27.8788H27.8787V31.3637H31.3635V27.8788Z" fill="white"/>
<path d="M41.8181 27.8788H38.3333V31.3637H41.8181V27.8788Z" fill="white"/>
<path d="M48.7878 27.8788H45.303V31.3637H48.7878V27.8788Z" fill="white"/>
<path d="M52.2727 27.8788H48.7878V31.3637H52.2727V27.8788Z" fill="white"/>
<path d="M55.7576 27.8788H52.2727V31.3637H55.7576V27.8788Z" fill="white"/>
<path d="M69.697 27.8788H66.2122V31.3637H69.697V27.8788Z" fill="white"/>
<path d="M76.6667 27.8788H73.1819V31.3637H76.6667V27.8788Z" fill="white"/>
<path d="M83.6362 27.8788H80.1514V31.3637H83.6362V27.8788Z" fill="white"/>
<path d="M87.1211 27.8788H83.6362V31.3637H87.1211V27.8788Z" fill="white"/>
<path d="M90.6059 27.8788H87.1211V31.3637H90.6059V27.8788Z" fill="white"/>
<path d="M97.5757 27.8788H94.0908V31.3637H97.5757V27.8788Z" fill="white"/>
<path d="M6.96971 31.3637H3.48486V34.8485H6.96971V31.3637Z" fill="white"/>
<path d="M10.4546 31.3637H6.96973V34.8485H10.4546V31.3637Z" fill="white"/>
<path d="M13.9394 31.3637H10.4546V34.8485H13.9394V31.3637Z" fill="white"/>
<path d="M17.4241 31.3637H13.9392V34.8485H17.4241V31.3637Z" fill="white"/>
<path d="M34.8484 31.3637H31.3635V34.8485H34.8484V31.3637Z" fill="white"/>
<path d="M38.3335 31.3637H34.8486V34.8485H38.3335V31.3637Z" fill="white"/>
<path d="M41.8181 31.3637H38.3333V34.8485H41.8181V31.3637Z" fill="white"/>
<path d="M45.303 31.3637H41.8181V34.8485H45.303V31.3637Z" fill="white"/>
<path d="M66.2121 31.3637H62.7273V34.8485H66.2121V31.3637Z" fill="white"/>
<path d="M87.1211 31.3637H83.6362V34.8485H87.1211V31.3637Z" fill="white"/>
<path d="M90.6059 31.3637H87.1211V34.8485H90.6059V31.3637Z" fill="white"/>
<path d="M94.091 31.3637H90.6062V34.8485H94.091V31.3637Z" fill="white"/>
<path d="M97.5757 31.3637H94.0908V34.8485H97.5757V31.3637Z" fill="white"/>
<path d="M115 31.3637H111.515V34.8485H115V31.3637Z" fill="white"/>
<path d="M6.96971 34.8485H3.48486V38.3334H6.96971V34.8485Z" fill="white"/>
<path d="M10.4546 34.8485H6.96973V38.3334H10.4546V34.8485Z" fill="white"/>
<path d="M17.4241 34.8485H13.9392V38.3334H17.4241V34.8485Z" fill="white"/>
<path d="M24.3938 34.8485H20.9089V38.3334H24.3938V34.8485Z" fill="white"/>
<path d="M31.3635 34.8485H27.8787V38.3334H31.3635V34.8485Z" fill="white"/>
<path d="M45.303 34.8485H41.8181V38.3334H45.303V34.8485Z" fill="white"/>
<path d="M59.2424 34.8485H55.7576V38.3334H59.2424V34.8485Z" fill="white"/>
<path d="M62.7273 34.8485H59.2424V38.3334H62.7273V34.8485Z" fill="white"/>
<path d="M69.697 34.8485H66.2122V38.3334H69.697V34.8485Z" fill="white"/>
<path d="M76.6667 34.8485H73.1819V38.3334H76.6667V34.8485Z" fill="white"/>
<path d="M80.1514 34.8485H76.6665V38.3334H80.1514V34.8485Z" fill="white"/>
<path d="M97.5757 34.8485H94.0908V38.3334H97.5757V34.8485Z" fill="white"/>
<path d="M101.061 34.8485H97.5757V38.3334H101.061V34.8485Z" fill="white"/>
<path d="M108.03 34.8485H104.545V38.3334H108.03V34.8485Z" fill="white"/>
<path d="M115 34.8485H111.515V38.3334H115V34.8485Z" fill="white"/>
<path d="M3.48485 38.3334H0V41.8182H3.48485V38.3334Z" fill="white"/>
<path d="M10.4546 38.3334H6.96973V41.8182H10.4546V38.3334Z" fill="white"/>
<path d="M13.9394 38.3334H10.4546V41.8182H13.9394V38.3334Z" fill="white"/>
<path d="M20.9092 38.3334H17.4243V41.8182H20.9092V38.3334Z" fill="white"/>
<path d="M52.2727 38.3334H48.7878V41.8182H52.2727V38.3334Z" fill="white"/>
<path d="M55.7576 38.3334H52.2727V41.8182H55.7576V38.3334Z" fill="white"/>
<path d="M62.7273 38.3334H59.2424V41.8182H62.7273V38.3334Z" fill="white"/>
<path d="M69.697 38.3334H66.2122V41.8182H69.697V38.3334Z" fill="white"/>
<path d="M87.1211 38.3334H83.6362V41.8182H87.1211V38.3334Z" fill="white"/>
<path d="M94.091 38.3334H90.6062V41.8182H94.091V38.3334Z" fill="white"/>
<path d="M101.061 38.3334H97.5757V41.8182H101.061V38.3334Z" fill="white"/>
<path d="M104.545 38.3334H101.061V41.8182H104.545V38.3334Z" fill="white"/>
<path d="M20.9092 41.8182H17.4243V45.3031H20.9092V41.8182Z" fill="white"/>
<path d="M24.3938 41.8182H20.9089V45.3031H24.3938V41.8182Z" fill="white"/>
<path d="M27.8786 41.8182H24.3938V45.3031H27.8786V41.8182Z" fill="white"/>
<path d="M31.3635 41.8182H27.8787V45.3031H31.3635V41.8182Z" fill="white"/>
<path d="M41.8181 41.8182H38.3333V45.3031H41.8181V41.8182Z" fill="white"/>
<path d="M45.303 41.8182H41.8181V45.3031H45.303V41.8182Z" fill="white"/>
<path d="M69.697 41.8182H66.2122V45.3031H69.697V41.8182Z" fill="white"/>
<path d="M90.6059 41.8182H87.1211V45.3031H90.6059V41.8182Z" fill="white"/>
<path d="M94.091 41.8182H90.6062V45.3031H94.091V41.8182Z" fill="white"/>
<path d="M104.545 41.8182H101.061V45.3031H104.545V41.8182Z" fill="white"/>
<path d="M115 41.8182H111.515V45.3031H115V41.8182Z" fill="white"/>
<path d="M6.96971 45.3031H3.48486V48.7879H6.96971V45.3031Z" fill="white"/>
<path d="M13.9394 45.3031H10.4546V48.7879H13.9394V45.3031Z" fill="white"/>
<path d="M31.3635 45.3031H27.8787V48.7879H31.3635V45.3031Z" fill="white"/>
<path d="M34.8484 45.3031H31.3635V48.7879H34.8484V45.3031Z" fill="white"/>
<path d="M38.3335 45.3031H34.8486V48.7879H38.3335V45.3031Z" fill="white"/>
<path d="M41.8181 45.3031H38.3333V48.7879H41.8181V45.3031Z" fill="white"/>
<path d="M48.7878 45.3031H45.303V48.7879H48.7878V45.3031Z" fill="white"/>
<path d="M55.7576 45.3031H52.2727V48.7879H55.7576V45.3031Z" fill="white"/>
<path d="M59.2424 45.3031H55.7576V48.7879H59.2424V45.3031Z" fill="white"/>
<path d="M62.7273 45.3031H59.2424V48.7879H62.7273V45.3031Z" fill="white"/>
<path d="M80.1514 45.3031H76.6665V48.7879H80.1514V45.3031Z" fill="white"/>
<path d="M87.1211 45.3031H83.6362V48.7879H87.1211V45.3031Z" fill="white"/>
<path d="M94.091 45.3031H90.6062V48.7879H94.091V45.3031Z" fill="white"/>
<path d="M97.5757 45.3031H94.0908V48.7879H97.5757V45.3031Z" fill="white"/>
<path d="M101.061 45.3031H97.5757V48.7879H101.061V45.3031Z" fill="white"/>
<path d="M104.545 45.3031H101.061V48.7879H104.545V45.3031Z" fill="white"/>
<path d="M111.515 45.3031H108.03V48.7879H111.515V45.3031Z" fill="white"/>
<path d="M115 45.3031H111.515V48.7879H115V45.3031Z" fill="white"/>
<path d="M13.9394 48.7879H10.4546V52.2728H13.9394V48.7879Z" fill="white"/>
<path d="M17.4241 48.7879H13.9392V52.2728H17.4241V48.7879Z" fill="white"/>
<path d="M20.9092 48.7879H17.4243V52.2728H20.9092V48.7879Z" fill="white"/>
<path d="M24.3938 48.7879H20.9089V52.2728H24.3938V48.7879Z" fill="white"/>
<path d="M27.8786 48.7879H24.3938V52.2728H27.8786V48.7879Z" fill="white"/>
<path d="M31.3635 48.7879H27.8787V52.2728H31.3635V48.7879Z" fill="white"/>
<path d="M41.8181 48.7879H38.3333V52.2728H41.8181V48.7879Z" fill="white"/>
<path d="M66.2121 48.7879H62.7273V52.2728H66.2121V48.7879Z" fill="white"/>
<path d="M73.1816 48.7879H69.6968V52.2728H73.1816V48.7879Z" fill="white"/>
<path d="M83.6362 48.7879H80.1514V52.2728H83.6362V48.7879Z" fill="white"/>
<path d="M90.6059 48.7879H87.1211V52.2728H90.6059V48.7879Z" fill="white"/>
<path d="M94.091 48.7879H90.6062V52.2728H94.091V48.7879Z" fill="white"/>
<path d="M97.5757 48.7879H94.0908V52.2728H97.5757V48.7879Z" fill="white"/>
<path d="M104.545 48.7879H101.061V52.2728H104.545V48.7879Z" fill="white"/>
<path d="M111.515 48.7879H108.03V52.2728H111.515V48.7879Z" fill="white"/>
<path d="M3.48485 52.2728H0V55.7576H3.48485V52.2728Z" fill="white"/>
<path d="M6.96971 52.2728H3.48486V55.7576H6.96971V52.2728Z" fill="white"/>
<path d="M13.9394 52.2728H10.4546V55.7576H13.9394V52.2728Z" fill="white"/>
<path d="M31.3635 52.2728H27.8787V55.7576H31.3635V52.2728Z" fill="white"/>
<path d="M55.7576 52.2728H52.2727V55.7576H55.7576V52.2728Z" fill="white"/>
<path d="M62.7273 52.2728H59.2424V55.7576H62.7273V52.2728Z" fill="white"/>
<path d="M69.697 52.2728H66.2122V55.7576H69.697V52.2728Z" fill="white"/>
<path d="M76.6667 52.2728H73.1819V55.7576H76.6667V52.2728Z" fill="white"/>
<path d="M83.6362 52.2728H80.1514V55.7576H83.6362V52.2728Z" fill="white"/>
<path d="M87.1211 52.2728H83.6362V55.7576H87.1211V52.2728Z" fill="white"/>
<path d="M94.091 52.2728H90.6062V55.7576H94.091V52.2728Z" fill="white"/>
<path d="M101.061 52.2728H97.5757V55.7576H101.061V52.2728Z" fill="white"/>
<path d="M111.515 52.2728H108.03V55.7576H111.515V52.2728Z" fill="white"/>
<path d="M3.48485 55.7576H0V59.2425H3.48485V55.7576Z" fill="white"/>
<path d="M6.96971 55.7576H3.48486V59.2425H6.96971V55.7576Z" fill="white"/>
<path d="M10.4546 55.7576H6.96973V59.2425H10.4546V55.7576Z" fill="white"/>
<path d="M24.3938 55.7576H20.9089V59.2425H24.3938V55.7576Z" fill="white"/>
<path d="M27.8786 55.7576H24.3938V59.2425H27.8786V55.7576Z" fill="white"/>
<path d="M34.8484 55.7576H31.3635V59.2425H34.8484V55.7576Z" fill="white"/>
<path d="M38.3335 55.7576H34.8486V59.2425H38.3335V55.7576Z" fill="white"/>
<path d="M45.303 55.7576H41.8181V59.2425H45.303V55.7576Z" fill="white"/>
<path d="M52.2727 55.7576H48.7878V59.2425H52.2727V55.7576Z" fill="white"/>
<path d="M59.2424 55.7576H55.7576V59.2425H59.2424V55.7576Z" fill="white"/>
<path d="M62.7273 55.7576H59.2424V59.2425H62.7273V55.7576Z" fill="white"/>
<path d="M69.697 55.7576H66.2122V59.2425H69.697V55.7576Z" fill="white"/>
<path d="M73.1816 55.7576H69.6968V59.2425H73.1816V55.7576Z" fill="white"/>
<path d="M76.6667 55.7576H73.1819V59.2425H76.6667V55.7576Z" fill="white"/>
<path d="M80.1514 55.7576H76.6665V59.2425H80.1514V55.7576Z" fill="white"/>
<path d="M87.1211 55.7576H83.6362V59.2425H87.1211V55.7576Z" fill="white"/>
<path d="M94.091 55.7576H90.6062V59.2425H94.091V55.7576Z" fill="white"/>
<path d="M101.061 55.7576H97.5757V59.2425H101.061V55.7576Z" fill="white"/>
<path d="M104.545 55.7576H101.061V59.2425H104.545V55.7576Z" fill="white"/>
<path d="M111.515 55.7576H108.03V59.2425H111.515V55.7576Z" fill="white"/>
<path d="M3.48485 59.2425H0V62.7273H3.48485V59.2425Z" fill="white"/>
<path d="M27.8786 59.2425H24.3938V62.7273H27.8786V59.2425Z" fill="white"/>
<path d="M41.8181 59.2425H38.3333V62.7273H41.8181V59.2425Z" fill="white"/>
<path d="M45.303 59.2425H41.8181V62.7273H45.303V59.2425Z" fill="white"/>
<path d="M48.7878 59.2425H45.303V62.7273H48.7878V59.2425Z" fill="white"/>
<path d="M66.2121 59.2425H62.7273V62.7273H66.2121V59.2425Z" fill="white"/>
<path d="M76.6667 59.2425H73.1819V62.7273H76.6667V59.2425Z" fill="white"/>
<path d="M80.1514 59.2425H76.6665V62.7273H80.1514V59.2425Z" fill="white"/>
<path d="M83.6362 59.2425H80.1514V62.7273H83.6362V59.2425Z" fill="white"/>
<path d="M87.1211 59.2425H83.6362V62.7273H87.1211V59.2425Z" fill="white"/>
<path d="M90.6059 59.2425H87.1211V62.7273H90.6059V59.2425Z" fill="white"/>
<path d="M97.5757 59.2425H94.0908V62.7273H97.5757V59.2425Z" fill="white"/>
<path d="M104.545 59.2425H101.061V62.7273H104.545V59.2425Z" fill="white"/>
<path d="M111.515 59.2425H108.03V62.7273H111.515V59.2425Z" fill="white"/>
<path d="M10.4546 62.7273H6.96973V66.2122H10.4546V62.7273Z" fill="white"/>
<path d="M17.4241 62.7273H13.9392V66.2122H17.4241V62.7273Z" fill="white"/>
<path d="M24.3938 62.7273H20.9089V66.2122H24.3938V62.7273Z" fill="white"/>
<path d="M27.8786 62.7273H24.3938V66.2122H27.8786V62.7273Z" fill="white"/>
<path d="M34.8484 62.7273H31.3635V66.2122H34.8484V62.7273Z" fill="white"/>
<path d="M38.3335 62.7273H34.8486V66.2122H38.3335V62.7273Z" fill="white"/>
<path d="M48.7878 62.7273H45.303V66.2122H48.7878V62.7273Z" fill="white"/>
<path d="M66.2121 62.7273H62.7273V66.2122H66.2121V62.7273Z" fill="white"/>
<path d="M80.1514 62.7273H76.6665V66.2122H80.1514V62.7273Z" fill="white"/>
<path d="M87.1211 62.7273H83.6362V66.2122H87.1211V62.7273Z" fill="white"/>
<path d="M108.03 62.7273H104.545V66.2122H108.03V62.7273Z" fill="white"/>
<path d="M111.515 62.7273H108.03V66.2122H111.515V62.7273Z" fill="white"/>
<path d="M115 62.7273H111.515V66.2122H115V62.7273Z" fill="white"/>
<path d="M3.48485 66.2122H0V69.697H3.48485V66.2122Z" fill="white"/>
<path d="M13.9394 66.2122H10.4546V69.697H13.9394V66.2122Z" fill="white"/>
<path d="M20.9092 66.2122H17.4243V69.697H20.9092V66.2122Z" fill="white"/>
<path d="M31.3635 66.2122H27.8787V69.697H31.3635V66.2122Z" fill="white"/>
<path d="M62.7273 66.2122H59.2424V69.697H62.7273V66.2122Z" fill="white"/>
<path d="M66.2121 66.2122H62.7273V69.697H66.2121V66.2122Z" fill="white"/>
<path d="M69.697 66.2122H66.2122V69.697H69.697V66.2122Z" fill="white"/>
<path d="M73.1816 66.2122H69.6968V69.697H73.1816V66.2122Z" fill="white"/>
<path d="M76.6667 66.2122H73.1819V69.697H76.6667V66.2122Z" fill="white"/>
<path d="M83.6362 66.2122H80.1514V69.697H83.6362V66.2122Z" fill="white"/>
<path d="M87.1211 66.2122H83.6362V69.697H87.1211V66.2122Z" fill="white"/>
<path d="M90.6059 66.2122H87.1211V69.697H90.6059V66.2122Z" fill="white"/>
<path d="M97.5757 66.2122H94.0908V69.697H97.5757V66.2122Z" fill="white"/>
<path d="M111.515 66.2122H108.03V69.697H111.515V66.2122Z" fill="white"/>
<path d="M115 66.2122H111.515V69.697H115V66.2122Z" fill="white"/>
<path d="M3.48485 69.697H0V73.1819H3.48485V69.697Z" fill="white"/>
<path d="M6.96971 69.697H3.48486V73.1819H6.96971V69.697Z" fill="white"/>
<path d="M13.9394 69.697H10.4546V73.1819H13.9394V69.697Z" fill="white"/>
<path d="M20.9092 69.697H17.4243V73.1819H20.9092V69.697Z" fill="white"/>
<path d="M24.3938 69.697H20.9089V73.1819H24.3938V69.697Z" fill="white"/>
<path d="M38.3335 69.697H34.8486V73.1819H38.3335V69.697Z" fill="white"/>
<path d="M41.8181 69.697H38.3333V73.1819H41.8181V69.697Z" fill="white"/>
<path d="M45.303 69.697H41.8181V73.1819H45.303V69.697Z" fill="white"/>
<path d="M48.7878 69.697H45.303V73.1819H48.7878V69.697Z" fill="white"/>
<path d="M52.2727 69.697H48.7878V73.1819H52.2727V69.697Z" fill="white"/>
<path d="M55.7576 69.697H52.2727V73.1819H55.7576V69.697Z" fill="white"/>
<path d="M59.2424 69.697H55.7576V73.1819H59.2424V69.697Z" fill="white"/>
<path d="M62.7273 69.697H59.2424V73.1819H62.7273V69.697Z" fill="white"/>
<path d="M66.2121 69.697H62.7273V73.1819H66.2121V69.697Z" fill="white"/>
<path d="M69.697 69.697H66.2122V73.1819H69.697V69.697Z" fill="white"/>
<path d="M80.1514 69.697H76.6665V73.1819H80.1514V69.697Z" fill="white"/>
<path d="M87.1211 69.697H83.6362V73.1819H87.1211V69.697Z" fill="white"/>
<path d="M90.6059 69.697H87.1211V73.1819H90.6059V69.697Z" fill="white"/>
<path d="M111.515 69.697H108.03V73.1819H111.515V69.697Z" fill="white"/>
<path d="M115 69.697H111.515V73.1819H115V69.697Z" fill="white"/>
<path d="M6.96971 73.1819H3.48486V76.6667H6.96971V73.1819Z" fill="white"/>
<path d="M10.4546 73.1819H6.96973V76.6667H10.4546V73.1819Z" fill="white"/>
<path d="M13.9394 73.1819H10.4546V76.6667H13.9394V73.1819Z" fill="white"/>
<path d="M27.8786 73.1819H24.3938V76.6667H27.8786V73.1819Z" fill="white"/>
<path d="M31.3635 73.1819H27.8787V76.6667H31.3635V73.1819Z" fill="white"/>
<path d="M45.303 73.1819H41.8181V76.6667H45.303V73.1819Z" fill="white"/>
<path d="M48.7878 73.1819H45.303V76.6667H48.7878V73.1819Z" fill="white"/>
<path d="M52.2727 73.1819H48.7878V76.6667H52.2727V73.1819Z" fill="white"/>
<path d="M55.7576 73.1819H52.2727V76.6667H55.7576V73.1819Z" fill="white"/>
<path d="M59.2424 73.1819H55.7576V76.6667H59.2424V73.1819Z" fill="white"/>
<path d="M66.2121 73.1819H62.7273V76.6667H66.2121V73.1819Z" fill="white"/>
<path d="M69.697 73.1819H66.2122V76.6667H69.697V73.1819Z" fill="white"/>
<path d="M73.1816 73.1819H69.6968V76.6667H73.1816V73.1819Z" fill="white"/>
<path d="M80.1514 73.1819H76.6665V76.6667H80.1514V73.1819Z" fill="white"/>
<path d="M87.1211 73.1819H83.6362V76.6667H87.1211V73.1819Z" fill="white"/>
<path d="M90.6059 73.1819H87.1211V76.6667H90.6059V73.1819Z" fill="white"/>
<path d="M94.091 73.1819H90.6062V76.6667H94.091V73.1819Z" fill="white"/>
<path d="M104.545 73.1819H101.061V76.6667H104.545V73.1819Z" fill="white"/>
<path d="M108.03 73.1819H104.545V76.6667H108.03V73.1819Z" fill="white"/>
<path d="M111.515 73.1819H108.03V76.6667H111.515V73.1819Z" fill="white"/>
<path d="M115 73.1819H111.515V76.6667H115V73.1819Z" fill="white"/>
<path d="M3.48485 76.6667H0V80.1516H3.48485V76.6667Z" fill="white"/>
<path d="M6.96971 76.6667H3.48486V80.1516H6.96971V76.6667Z" fill="white"/>
<path d="M13.9394 76.6667H10.4546V80.1516H13.9394V76.6667Z" fill="white"/>
<path d="M17.4241 76.6667H13.9392V80.1516H17.4241V76.6667Z" fill="white"/>
<path d="M24.3938 76.6667H20.9089V80.1516H24.3938V76.6667Z" fill="white"/>
<path d="M31.3635 76.6667H27.8787V80.1516H31.3635V76.6667Z" fill="white"/>
<path d="M34.8484 76.6667H31.3635V80.1516H34.8484V76.6667Z" fill="white"/>
<path d="M38.3335 76.6667H34.8486V80.1516H38.3335V76.6667Z" fill="white"/>
<path d="M52.2727 76.6667H48.7878V80.1516H52.2727V76.6667Z" fill="white"/>
<path d="M55.7576 76.6667H52.2727V80.1516H55.7576V76.6667Z" fill="white"/>
<path d="M66.2121 76.6667H62.7273V80.1516H66.2121V76.6667Z" fill="white"/>
<path d="M73.1816 76.6667H69.6968V80.1516H73.1816V76.6667Z" fill="white"/>
<path d="M87.1211 76.6667H83.6362V80.1516H87.1211V76.6667Z" fill="white"/>
<path d="M90.6059 76.6667H87.1211V80.1516H90.6059V76.6667Z" fill="white"/>
<path d="M94.091 76.6667H90.6062V80.1516H94.091V76.6667Z" fill="white"/>
<path d="M104.545 76.6667H101.061V80.1516H104.545V76.6667Z" fill="white"/>
<path d="M108.03 76.6667H104.545V80.1516H108.03V76.6667Z" fill="white"/>
<path d="M115 76.6667H111.515V80.1516H115V76.6667Z" fill="white"/>
<path d="M6.96971 80.1516H3.48486V83.6364H6.96971V80.1516Z" fill="white"/>
<path d="M10.4546 80.1516H6.96973V83.6364H10.4546V80.1516Z" fill="white"/>
<path d="M13.9394 80.1516H10.4546V83.6364H13.9394V80.1516Z" fill="white"/>
<path d="M20.9092 80.1516H17.4243V83.6364H20.9092V80.1516Z" fill="white"/>
<path d="M38.3335 80.1516H34.8486V83.6364H38.3335V80.1516Z" fill="white"/>
<path d="M41.8181 80.1516H38.3333V83.6364H41.8181V80.1516Z" fill="white"/>
<path d="M45.303 80.1516H41.8181V83.6364H45.303V80.1516Z" fill="white"/>
<path d="M48.7878 80.1516H45.303V83.6364H48.7878V80.1516Z" fill="white"/>
<path d="M52.2727 80.1516H48.7878V83.6364H52.2727V80.1516Z" fill="white"/>
<path d="M59.2424 80.1516H55.7576V83.6364H59.2424V80.1516Z" fill="white"/>
<path d="M66.2121 80.1516H62.7273V83.6364H66.2121V80.1516Z" fill="white"/>
<path d="M76.6667 80.1516H73.1819V83.6364H76.6667V80.1516Z" fill="white"/>
<path d="M80.1514 80.1516H76.6665V83.6364H80.1514V80.1516Z" fill="white"/>
<path d="M83.6362 80.1516H80.1514V83.6364H83.6362V80.1516Z" fill="white"/>
<path d="M87.1211 80.1516H83.6362V83.6364H87.1211V80.1516Z" fill="white"/>
<path d="M104.545 80.1516H101.061V83.6364H104.545V80.1516Z" fill="white"/>
<path d="M115 80.1516H111.515V83.6364H115V80.1516Z" fill="white"/>
<path d="M3.48485 83.6364H0V87.1213H3.48485V83.6364Z" fill="white"/>
<path d="M10.4546 83.6364H6.96973V87.1213H10.4546V83.6364Z" fill="white"/>
<path d="M24.3938 83.6364H20.9089V87.1213H24.3938V83.6364Z" fill="white"/>
<path d="M34.8484 83.6364H31.3635V87.1213H34.8484V83.6364Z" fill="white"/>
<path d="M45.303 83.6364H41.8181V87.1213H45.303V83.6364Z" fill="white"/>
<path d="M48.7878 83.6364H45.303V87.1213H48.7878V83.6364Z" fill="white"/>
<path d="M55.7576 83.6364H52.2727V87.1213H55.7576V83.6364Z" fill="white"/>
<path d="M59.2424 83.6364H55.7576V87.1213H59.2424V83.6364Z" fill="white"/>
<path d="M62.7273 83.6364H59.2424V87.1213H62.7273V83.6364Z" fill="white"/>
<path d="M69.697 83.6364H66.2122V87.1213H69.697V83.6364Z" fill="white"/>
<path d="M73.1816 83.6364H69.6968V87.1213H73.1816V83.6364Z" fill="white"/>
<path d="M76.6667 83.6364H73.1819V87.1213H76.6667V83.6364Z" fill="white"/>
<path d="M80.1514 83.6364H76.6665V87.1213H80.1514V83.6364Z" fill="white"/>
<path d="M87.1211 83.6364H83.6362V87.1213H87.1211V83.6364Z" fill="white"/>
<path d="M90.6059 83.6364H87.1211V87.1213H90.6059V83.6364Z" fill="white"/>
<path d="M94.091 83.6364H90.6062V87.1213H94.091V83.6364Z" fill="white"/>
<path d="M97.5757 83.6364H94.0908V87.1213H97.5757V83.6364Z" fill="white"/>
<path d="M101.061 83.6364H97.5757V87.1213H101.061V83.6364Z" fill="white"/>
<path d="M104.545 83.6364H101.061V87.1213H104.545V83.6364Z" fill="white"/>
<path d="M111.515 83.6364H108.03V87.1213H111.515V83.6364Z" fill="white"/>
<path d="M31.3635 87.1213H27.8787V90.6061H31.3635V87.1213Z" fill="white"/>
<path d="M34.8484 87.1213H31.3635V90.6061H34.8484V87.1213Z" fill="white"/>
<path d="M41.8181 87.1213H38.3333V90.6061H41.8181V87.1213Z" fill="white"/>
<path d="M48.7878 87.1213H45.303V90.6061H48.7878V87.1213Z" fill="white"/>
<path d="M66.2121 87.1213H62.7273V90.6061H66.2121V87.1213Z" fill="white"/>
<path d="M69.697 87.1213H66.2122V90.6061H69.697V87.1213Z" fill="white"/>
<path d="M73.1816 87.1213H69.6968V90.6061H73.1816V87.1213Z" fill="white"/>
<path d="M80.1514 87.1213H76.6665V90.6061H80.1514V87.1213Z" fill="white"/>
<path d="M83.6362 87.1213H80.1514V90.6061H83.6362V87.1213Z" fill="white"/>
<path d="M87.1211 87.1213H83.6362V90.6061H87.1211V87.1213Z" fill="white"/>
<path d="M101.061 87.1213H97.5757V90.6061H101.061V87.1213Z" fill="white"/>
<path d="M104.545 87.1213H101.061V90.6061H104.545V87.1213Z" fill="white"/>
<path d="M115 87.1213H111.515V90.6061H115V87.1213Z" fill="white"/>
<path d="M38.3335 90.6061H34.8486V94.091H38.3335V90.6061Z" fill="white"/>
<path d="M41.8181 90.6061H38.3333V94.091H41.8181V90.6061Z" fill="white"/>
<path d="M45.303 90.6061H41.8181V94.091H45.303V90.6061Z" fill="white"/>
<path d="M48.7878 90.6061H45.303V94.091H48.7878V90.6061Z" fill="white"/>
<path d="M59.2424 90.6061H55.7576V94.091H59.2424V90.6061Z" fill="white"/>
<path d="M73.1816 90.6061H69.6968V94.091H73.1816V90.6061Z" fill="white"/>
<path d="M76.6667 90.6061H73.1819V94.091H76.6667V90.6061Z" fill="white"/>
<path d="M87.1211 90.6061H83.6362V94.091H87.1211V90.6061Z" fill="white"/>
<path d="M94.091 90.6061H90.6062V94.091H94.091V90.6061Z" fill="white"/>
<path d="M101.061 90.6061H97.5757V94.091H101.061V90.6061Z" fill="white"/>
<path d="M104.545 90.6061H101.061V94.091H104.545V90.6061Z" fill="white"/>
<path d="M108.03 90.6061H104.545V94.091H108.03V90.6061Z" fill="white"/>
<path d="M31.3635 94.091H27.8787V97.5758H31.3635V94.091Z" fill="white"/>
<path d="M34.8484 94.091H31.3635V97.5758H34.8484V94.091Z" fill="white"/>
<path d="M48.7878 94.091H45.303V97.5758H48.7878V94.091Z" fill="white"/>
<path d="M52.2727 94.091H48.7878V97.5758H52.2727V94.091Z" fill="white"/>
<path d="M55.7576 94.091H52.2727V97.5758H55.7576V94.091Z" fill="white"/>
<path d="M59.2424 94.091H55.7576V97.5758H59.2424V94.091Z" fill="white"/>
<path d="M87.1211 94.091H83.6362V97.5758H87.1211V94.091Z" fill="white"/>
<path d="M101.061 94.091H97.5757V97.5758H101.061V94.091Z" fill="white"/>
<path d="M111.515 94.091H108.03V97.5758H111.515V94.091Z" fill="white"/>
<path d="M115 94.091H111.515V97.5758H115V94.091Z" fill="white"/>
<path d="M38.3335 97.5758H34.8486V101.061H38.3335V97.5758Z" fill="white"/>
<path d="M41.8181 97.5758H38.3333V101.061H41.8181V97.5758Z" fill="white"/>
<path d="M59.2424 97.5758H55.7576V101.061H59.2424V97.5758Z" fill="white"/>
<path d="M69.697 97.5758H66.2122V101.061H69.697V97.5758Z" fill="white"/>
<path d="M80.1514 97.5758H76.6665V101.061H80.1514V97.5758Z" fill="white"/>
<path d="M87.1211 97.5758H83.6362V101.061H87.1211V97.5758Z" fill="white"/>
<path d="M90.6059 97.5758H87.1211V101.061H90.6059V97.5758Z" fill="white"/>
<path d="M94.091 97.5758H90.6062V101.061H94.091V97.5758Z" fill="white"/>
<path d="M97.5757 97.5758H94.0908V101.061H97.5757V97.5758Z" fill="white"/>
<path d="M101.061 97.5758H97.5757V101.061H101.061V97.5758Z" fill="white"/>
<path d="M104.545 97.5758H101.061V101.061H104.545V97.5758Z" fill="white"/>
<path d="M115 97.5758H111.515V101.061H115V97.5758Z" fill="white"/>
<path d="M31.3635 101.061H27.8787V104.546H31.3635V101.061Z" fill="white"/>
<path d="M34.8484 101.061H31.3635V104.546H34.8484V101.061Z" fill="white"/>
<path d="M41.8181 101.061H38.3333V104.546H41.8181V101.061Z" fill="white"/>
<path d="M45.303 101.061H41.8181V104.546H45.303V101.061Z" fill="white"/>
<path d="M48.7878 101.061H45.303V104.546H48.7878V101.061Z" fill="white"/>
<path d="M52.2727 101.061H48.7878V104.546H52.2727V101.061Z" fill="white"/>
<path d="M55.7576 101.061H52.2727V104.546H55.7576V101.061Z" fill="white"/>
<path d="M69.697 101.061H66.2122V104.546H69.697V101.061Z" fill="white"/>
<path d="M73.1816 101.061H69.6968V104.546H73.1816V101.061Z" fill="white"/>
<path d="M83.6362 101.061H80.1514V104.546H83.6362V101.061Z" fill="white"/>
<path d="M94.091 101.061H90.6062V104.546H94.091V101.061Z" fill="white"/>
<path d="M101.061 101.061H97.5757V104.546H101.061V101.061Z" fill="white"/>
<path d="M111.515 101.061H108.03V104.546H111.515V101.061Z" fill="white"/>
<path d="M38.3335 104.546H34.8486V108.03H38.3335V104.546Z" fill="white"/>
<path d="M41.8181 104.546H38.3333V108.03H41.8181V104.546Z" fill="white"/>
<path d="M45.303 104.546H41.8181V108.03H45.303V104.546Z" fill="white"/>
<path d="M66.2121 104.546H62.7273V108.03H66.2121V104.546Z" fill="white"/>
<path d="M76.6667 104.546H73.1819V108.03H76.6667V104.546Z" fill="white"/>
<path d="M87.1211 104.546H83.6362V108.03H87.1211V104.546Z" fill="white"/>
<path d="M101.061 104.546H97.5757V108.03H101.061V104.546Z" fill="white"/>
<path d="M108.03 104.546H104.545V108.03H108.03V104.546Z" fill="white"/>
<path d="M115 104.546H111.515V108.03H115V104.546Z" fill="white"/>
<path d="M34.8484 108.03H31.3635V111.515H34.8484V108.03Z" fill="white"/>
<path d="M55.7576 108.03H52.2727V111.515H55.7576V108.03Z" fill="white"/>
<path d="M59.2424 108.03H55.7576V111.515H59.2424V108.03Z" fill="white"/>
<path d="M62.7273 108.03H59.2424V111.515H62.7273V108.03Z" fill="white"/>
<path d="M76.6667 108.03H73.1819V111.515H76.6667V108.03Z" fill="white"/>
<path d="M80.1514 108.03H76.6665V111.515H80.1514V108.03Z" fill="white"/>
<path d="M87.1211 108.03H83.6362V111.515H87.1211V108.03Z" fill="white"/>
<path d="M90.6059 108.03H87.1211V111.515H90.6059V108.03Z" fill="white"/>
<path d="M94.091 108.03H90.6062V111.515H94.091V108.03Z" fill="white"/>
<path d="M31.3635 111.515H27.8787V115H31.3635V111.515Z" fill="white"/>
<path d="M34.8484 111.515H31.3635V115H34.8484V111.515Z" fill="white"/>
<path d="M76.6667 111.515H73.1819V115H76.6667V111.515Z" fill="white"/>
<path d="M87.1211 111.515H83.6362V115H87.1211V111.515Z" fill="white"/>
<path d="M94.091 111.515H90.6062V115H94.091V111.515Z" fill="white"/>
<path d="M101.061 111.515H97.5757V115H101.061V111.515Z" fill="white"/>
<path d="M111.515 111.515H108.03V115H111.515V111.515Z" fill="white"/>
<path d="M20.7348 0H3.65909H0V3.65909V20.7348V24.3939H3.65909H20.7348H24.3939V20.7348V3.65909V0H20.7348ZM20.7348 20.7348H3.65909V3.65909H20.7348V20.7348Z" fill="white"/>
<path d="M111.341 6.10352e-05H94.2653H90.6062V3.65915V20.7349V24.394H94.2653H111.341H115V20.7349V3.65915V6.10352e-05H111.341ZM111.341 20.7349H94.2653V3.65915H111.341V20.7349Z" fill="white"/>
<path d="M20.7348 90.6061H3.65909H0V94.2652V111.341V115H3.65909H20.7348H24.3939V111.341V94.2652V90.6061H20.7348ZM20.7348 111.341H3.65909V94.2652H20.7348V111.341Z" fill="white"/>
<path d="M17.4243 6.96976H6.96973V17.4243H17.4243V6.96976Z" fill="white"/>
<path d="M108.03 6.96976H97.5757V17.4243H108.03V6.96976Z" fill="white"/>
<path d="M17.4243 97.5758H6.96973V108.03H17.4243V97.5758Z" fill="white"/>
</svg>
