<svg width="17" height="18" viewBox="0 0 17 18" fill="none" xmlns="http://www.w3.org/2000/svg">
<g clip-path="url(#clip0_411_70)">
<path d="M3.34599 7.37169C3.26089 7.37246 3.17709 7.3507 3.10311 7.30861C3.04885 7.27811 3.00122 7.23709 2.96301 7.18796C2.92479 7.13884 2.89675 7.08258 2.88054 7.02248C2.86433 6.96239 2.86026 6.89966 2.86858 6.83798C2.8769 6.77629 2.89744 6.71689 2.929 6.66324C3.53715 5.64818 5.38746 3.27899 9.42496 3.27899C11.1746 3.27899 12.7092 3.73857 13.9839 4.64449C15.033 5.38795 15.6209 6.22952 15.901 6.63485C15.9366 6.68594 15.9615 6.74362 15.9744 6.8045C15.9873 6.86537 15.9879 6.92822 15.9761 6.98932C15.9644 7.05043 15.9405 7.10857 15.906 7.16031C15.8714 7.21206 15.8268 7.25637 15.7749 7.29063C15.6687 7.36081 15.5394 7.38688 15.4143 7.36333C15.2892 7.33978 15.1783 7.26845 15.1049 7.16445C14.598 6.4355 13.0524 4.21739 9.42496 4.21739C5.88426 4.21739 4.28345 6.25854 3.76205 7.13386C3.72015 7.20695 3.6595 7.26753 3.58636 7.30935C3.51322 7.35116 3.43024 7.37268 3.34599 7.37169Z" fill="black"/>
<path d="M11.4592 16.6454C11.419 16.6458 11.3788 16.6413 11.3397 16.6318C8.41091 15.9063 7.31731 12.9785 7.27284 12.8567L7.2659 12.8299C7.24193 12.7454 6.65428 10.7377 7.55641 9.56175C7.96994 9.02552 8.59891 8.75047 9.42943 8.75047C10.2016 8.75047 10.7587 8.99051 11.1416 9.48731C11.457 9.89296 11.5832 10.3932 11.7053 10.8752C11.9617 11.8789 12.1469 12.406 13.2127 12.4602C13.6808 12.4839 13.9883 12.2101 14.1628 11.977C14.6343 11.3414 14.7163 10.3052 14.3609 9.39048C13.9041 8.20982 12.2831 5.98384 9.42502 5.98384C8.20493 5.98384 7.0839 6.37591 6.18492 7.11276C5.44082 7.72311 4.85128 8.58487 4.5674 9.4706C4.04095 11.1197 4.73142 13.7119 4.73805 13.7355C4.75417 13.7959 4.75805 13.8588 4.74945 13.9207C4.74086 13.9825 4.71997 14.042 4.68802 14.0957C4.65606 14.1493 4.61369 14.196 4.56339 14.233C4.5131 14.2701 4.4559 14.2966 4.39517 14.3112C4.27249 14.3438 4.14191 14.3271 4.03142 14.2646C3.92092 14.2021 3.8393 14.0988 3.80406 13.9768C3.77251 13.8585 3.03504 11.0938 3.64319 9.18797C4.30559 7.12285 6.34989 5.04102 9.42596 5.04102C10.8476 5.04102 12.1907 5.52425 13.3117 6.43679C14.1798 7.14651 14.8889 8.09974 15.2598 9.05265C15.7314 10.2693 15.6049 11.6348 14.9384 12.5268C14.4943 13.1217 13.8619 13.4327 13.1613 13.399C11.3362 13.3075 11.0082 12.0335 10.7691 11.1042C10.523 10.151 10.3656 9.6914 9.42596 9.6914C8.90992 9.6914 8.54749 9.83334 8.32196 10.1273C8.01441 10.5295 7.99044 11.1581 8.02451 11.6143C8.04687 11.932 8.10076 12.2468 8.18538 12.5539C8.26045 12.7432 9.23797 15.1404 11.5791 15.7205C11.6396 15.7349 11.6967 15.7611 11.7469 15.7976C11.7972 15.8342 11.8398 15.8804 11.872 15.9336C11.9043 15.9867 11.9257 16.0458 11.935 16.1072C11.9443 16.1687 11.9412 16.2315 11.9261 16.2918C11.8975 16.3936 11.8364 16.4832 11.7521 16.5471C11.6678 16.6109 11.565 16.6454 11.4592 16.6454Z" fill="black"/>
<path d="M7.69989 16.429C7.63424 16.4291 7.56924 16.416 7.50876 16.3905C7.44828 16.365 7.39356 16.3275 7.34787 16.2804C6.17573 15.0502 5.5127 13.6747 5.26319 11.9546V11.9455C5.12314 10.8068 5.32817 9.1946 6.33281 8.08618C7.07439 7.26828 8.11688 6.85254 9.42592 6.85254C10.974 6.85254 12.1907 7.57235 12.9493 8.93091C13.4997 9.91788 13.6088 10.9014 13.6117 10.9418C13.6174 11.004 13.6109 11.0668 13.5923 11.1265C13.5738 11.1862 13.5437 11.2417 13.5037 11.2897C13.4637 11.3378 13.4146 11.3775 13.3593 11.4065C13.3039 11.4356 13.2434 11.4534 13.1811 11.4591C13.0555 11.4727 12.9295 11.4364 12.8304 11.358C12.7313 11.2795 12.6671 11.1653 12.6515 11.0399C12.5684 10.4497 12.3774 9.87995 12.0881 9.35894C11.5002 8.3215 10.6056 7.7941 9.42245 7.7941C8.40046 7.7941 7.60084 8.10164 7.05073 8.70884C6.25774 9.58416 6.10444 10.9326 6.21327 11.8247C6.43186 13.3457 7.01635 14.5556 8.04844 15.6369C8.09151 15.6818 8.12514 15.7348 8.14732 15.7928C8.16949 15.8509 8.17977 15.9128 8.17753 15.975C8.1753 16.0371 8.16059 16.0981 8.1343 16.1544C8.108 16.2108 8.07065 16.2612 8.02446 16.3028C7.93552 16.3834 7.81993 16.4284 7.69989 16.429Z" fill="black"/>
<path d="M13.0997 15.0739C12.0746 15.0739 11.203 14.79 10.5056 14.2257C9.10449 13.0967 8.9474 11.2581 8.94047 11.1805C8.93059 11.0531 8.97172 10.9271 9.05481 10.83C9.13789 10.733 9.25612 10.6729 9.38349 10.663C9.51085 10.6532 9.63693 10.6943 9.73397 10.7774C9.83101 10.8605 9.89108 10.9787 9.90095 11.1061C9.90442 11.1332 10.0445 12.6372 11.1245 13.5033C11.7636 14.0137 12.6177 14.2162 13.6703 14.0979C13.7961 14.0827 13.9229 14.1178 14.0228 14.1957C14.1228 14.2736 14.1878 14.3879 14.2037 14.5137C14.2106 14.5758 14.2051 14.6386 14.1874 14.6985C14.1697 14.7585 14.1403 14.8143 14.1009 14.8628C14.0614 14.9112 14.0127 14.9513 13.9576 14.9807C13.9024 15.0101 13.842 15.0283 13.7798 15.0341C13.5541 15.0604 13.327 15.0737 13.0997 15.0739ZM13.9097 2.53899C13.5098 2.27876 12.0916 1.5047 9.42497 1.5047C6.62584 1.5047 5.2042 2.35983 4.88972 2.57716C4.86895 2.58991 4.8495 2.6047 4.83168 2.62132C4.8298 2.62314 4.82735 2.62425 4.82474 2.62448C4.77452 2.66832 4.73422 2.72237 4.70654 2.78302C4.67885 2.84366 4.66441 2.90951 4.66418 2.97618C4.66505 3.03867 4.67823 3.10038 4.70299 3.15777C4.72774 3.21515 4.76357 3.26709 4.80844 3.31061C4.8533 3.35412 4.90631 3.38835 4.96442 3.41135C5.02254 3.43434 5.08462 3.44564 5.14711 3.44459C5.24727 3.44452 5.34501 3.41382 5.42721 3.35659C5.44077 3.34649 6.66432 2.44752 9.42591 2.44752C12.1875 2.44752 13.4177 3.34334 13.4309 3.34996C13.5149 3.41224 13.6169 3.44546 13.7214 3.44459C13.784 3.44555 13.8461 3.43415 13.9042 3.41104C13.9623 3.38793 14.0153 3.35357 14.0601 3.30994C14.1049 3.2663 14.1407 3.21424 14.1653 3.15675C14.19 3.09925 14.203 3.03746 14.2037 2.97492C14.2038 2.88123 14.1758 2.78967 14.1234 2.712C14.071 2.63433 13.9966 2.57408 13.9097 2.53899Z" fill="black"/>
</g>
<defs>
<clipPath id="clip0_411_70">
<rect width="17" height="17" fill="white" transform="translate(0 0.5)"/>
</clipPath>
</defs>
</svg>
