<svg width="98" height="16" viewBox="0 0 98 16" fill="none" xmlns="http://www.w3.org/2000/svg">
<g clip-path="url(#clip0_191_39)">
<path d="M27.8671 4.14928V0.525391H41.3175V4.14928H36.5829V15.4473H32.6016V4.14928H27.8671Z" fill="white"/>
<path d="M42.491 15.4473V0.525391H54.1121V4.14928H46.4723V6.38757H52.6057V9.58508H46.4723V11.8234H54.1121V15.4473H42.491Z" fill="white"/>
<path d="M55.9314 15.4473V0.525391H60.7735L66.0461 9.9049H66.2613L65.9384 7.98634V0.525391H69.9198V15.4473H65.0776L59.8051 6.06781H59.5899L59.9127 7.98634V15.4473H55.9314Z" fill="white"/>
<path d="M72.2928 15.4473V0.525391H83.9137V4.14928H76.2742V6.38757H82.4076V9.58508H76.2742V11.8234H83.9137V15.4473H72.2928Z" fill="white"/>
<path d="M84.5499 4.14928V0.525391H98V4.14928H93.2653V15.4473H89.2838V4.14928H84.5499Z" fill="white"/>
<path d="M17.6343 1.86766C17.1038 1.0339 16.1541 0.534551 15.0932 0.534551H9.24339C9.16757 0.52997 9.09183 0.525391 9.016 0.525391C8.94026 0.525391 8.86452 0.52997 8.78869 0.534551H2.93883C1.87797 0.534551 0.928251 1.0339 0.397822 1.86766C-0.132607 2.70142 -0.132607 3.69553 0.397822 4.5293L6.47503 14.0718C7.00546 14.9056 7.95517 15.4049 9.016 15.4049C10.0769 15.4049 11.0266 14.9056 11.557 14.0718L17.6343 4.5293C18.1647 3.70011 18.1647 2.70142 17.6343 1.86766ZM10.1526 13.3388C9.91527 13.7099 9.49088 13.9344 9.016 13.9344C8.5412 13.9344 8.11683 13.7099 7.8794 13.3388L4.45939 7.96973L7.8794 2.59606C8.09157 2.26163 8.45026 2.0509 8.86452 2.00968H9.16757C9.58183 2.0509 9.94052 2.26622 10.1526 2.59606L13.5727 7.96514L10.1526 13.3388Z" fill="white"/>
</g>
<defs>
<clipPath id="clip0_191_39">
<rect width="98" height="14.9492" fill="white" transform="translate(0 0.525391)"/>
</clipPath>
</defs>
</svg>
