<svg width="18" height="18" viewBox="0 0 18 18" fill="none" xmlns="http://www.w3.org/2000/svg">
<path d="M8.99927 4V14M11.4993 6.91667C11.4993 5.76667 10.3801 4.83333 8.99927 4.83333C7.61843 4.83333 6.49927 5.76667 6.49927 6.91667C6.49927 8.06667 7.61843 9 8.99927 9C10.3801 9 11.4993 9.93333 11.4993 11.0833C11.4993 12.2333 10.3801 13.1667 8.99927 13.1667C7.61843 13.1667 6.49927 12.2333 6.49927 11.0833" stroke="white" stroke-linecap="round"/>
<path d="M4.8328 1.78176C6.09907 1.04918 7.53656 0.664504 8.99947 0.666758C13.602 0.666758 17.3328 4.39759 17.3328 9.00009C17.3328 13.6026 13.602 17.3334 8.99947 17.3334C4.39697 17.3334 0.666138 13.6026 0.666138 9.00009C0.666138 7.48259 1.07197 6.05842 1.78114 4.83342" stroke="white" stroke-linecap="round"/>
</svg>
