<svg width="15" height="15" viewBox="0 0 15 15" fill="none" xmlns="http://www.w3.org/2000/svg">
<path d="M7.49998 14.4642C11.25 14.4642 13.9286 13.1378 13.9286 10.1849C13.9286 6.976 12.3214 4.83636 9.10713 3.23136L10.3714 1.60493C10.4358 1.49824 10.4708 1.3764 10.4727 1.2518C10.4747 1.12721 10.4436 1.00432 10.3826 0.895645C10.3217 0.786973 10.233 0.696405 10.1256 0.633167C10.0182 0.569928 9.89602 0.536278 9.77141 0.535645H5.22855C5.10421 0.536937 4.9824 0.570997 4.87542 0.634389C4.76844 0.697781 4.68007 0.788264 4.61921 0.89671C4.55836 1.00516 4.52718 1.12773 4.52882 1.25207C4.53046 1.37642 4.56486 1.49813 4.62855 1.60493L5.89284 3.24207C2.67855 4.85779 1.07141 6.99743 1.07141 10.2064C1.07141 13.1378 3.74998 14.4642 7.49998 14.4642Z" stroke="white" stroke-width="1.07143" stroke-linecap="round" stroke-linejoin="round"/>
<path d="M8.98179 7.29218C8.90192 7.06558 8.75369 6.86937 8.55755 6.73061C8.36142 6.59186 8.12704 6.51741 7.88679 6.51754H6.98893C6.7331 6.51703 6.48613 6.61119 6.29558 6.78189C6.10503 6.95258 5.98436 7.18774 5.95683 7.44209C5.92929 7.69643 5.99683 7.95197 6.14643 8.15949C6.29604 8.36701 6.51714 8.51185 6.76714 8.56611L8.13536 8.86611C8.41415 8.92828 8.66026 9.09102 8.82663 9.32321C8.99301 9.5554 9.06798 9.84076 9.03722 10.1247C9.00646 10.4087 8.87213 10.6714 8.6599 10.8626C8.44767 11.0538 8.17243 11.1601 7.88679 11.1611H7.11429C6.60857 11.1611 6.17893 10.8375 6.01929 10.3875M7.5 6.51754V5.35718M7.5 12.3215V11.1611" stroke="white" stroke-width="1.07143" stroke-linecap="round" stroke-linejoin="round"/>
</svg>
