<svg width="82" height="14" viewBox="0 0 82 14" fill="none" xmlns="http://www.w3.org/2000/svg">
<g clip-path="url(#clip0_380_134)">
<path d="M23.3171 3.37172V0.220337H34.5716V3.37172H30.61V13.1966H27.2787V3.37172H23.3171Z" fill="white"/>
<path d="M35.5537 13.1966V0.220337H45.2775V3.37172H38.8851V5.31817H44.0171V8.09877H38.8851V10.0452H45.2775V13.1966H35.5537Z" fill="white"/>
<path d="M46.7998 13.1966V0.220337H50.8514L55.2631 8.3769H55.4432L55.173 6.70848V0.220337H58.5044V13.1966H54.4528L50.041 5.04011H49.861L50.1311 6.70848V13.1966H46.7998Z" fill="white"/>
<path d="M60.49 13.1966V0.220337H70.2136V3.37172H63.8213V5.31817H68.9534V8.09877H63.8213V10.0452H70.2136V13.1966H60.49Z" fill="white"/>
<path d="M70.7458 3.37172V0.220337H82V3.37172H78.0383V13.1966H74.7069V3.37172H70.7458Z" fill="white"/>
<path d="M14.7552 1.38759C14.3114 0.66254 13.5167 0.228303 12.629 0.228303H7.73427C7.67082 0.224319 7.60745 0.220337 7.544 0.220337C7.48062 0.220337 7.41725 0.224319 7.3538 0.228303H2.45902C1.57136 0.228303 0.7767 0.66254 0.332871 1.38759C-0.110957 2.11265 -0.110957 2.97714 0.332871 3.70219L5.41788 12.0005C5.86171 12.7255 6.65637 13.1597 7.544 13.1597C8.43168 13.1597 9.22632 12.7255 9.67016 12.0005L14.7552 3.70219C15.199 2.98112 15.199 2.11265 14.7552 1.38759ZM8.49506 11.3631C8.29645 11.6858 7.94135 11.881 7.544 11.881C7.14672 11.881 6.79164 11.6858 6.59297 11.3631L3.73133 6.69404L6.59297 2.02102C6.7705 1.7302 7.07062 1.54694 7.41725 1.51109H7.67082C8.01745 1.54694 8.31758 1.73419 8.49506 2.02102L11.3567 6.69005L8.49506 11.3631Z" fill="white"/>
</g>
<defs>
<clipPath id="clip0_380_134">
<rect width="82" height="13" fill="white" transform="translate(0 0.220337)"/>
</clipPath>
</defs>
</svg>
